<?xml version="1.0" encoding="UTF-8"?>
<svg id="Layer_1" xmlns="http://www.w3.org/2000/svg" version="1.1" viewBox="0 0 281 226.8">
  <!-- Generator: Adobe Illustrator 29.4.0, SVG Export Plug-In . SVG Version: 2.1.0 Build 152)  -->
  <defs>
    <style>
      .st0 {
        fill: #ee5827;
      }

      .st1 {
        fill: #fffdfc;
      }
    </style>
  </defs>
  <g id="GTqWiJ.tif">
    <g>
      <path class="st0" d="M245.7,0l35.3,48.8L35.3,226.8,0,178,245.7,0ZM244.5,9.8L10.3,179.2l26.2,37.3c.7.7,1.9-.4,2.6-.9,1.8-1.1,14-9.8,14.4-10.6.9-1.7-9-9.2-4-12.4s6.9,6.4,10.3,7.9l18.2-13-.2-1.4-9.5-13c-1-3.4,1.9-5.8,5.1-4s8.7,13,10.6,13.5.5.1.8,0l17.6-12.9c1.1-2.1-8.9-9.3-4-12.4s8.5,8.1,10.4,7.9l18.2-13c.3-.5,0-1-.2-1.4-1.6-3.8-8.1-9.4-9.3-13.1s2.3-5.7,5.4-3.9c3.3,3.3,6.2,10.1,9.5,13s.7.7,1.4.5l16.8-11.9c-.7-3.3-9.1-9.4-4.3-12.5,5-3.3,7.5,7.9,10.5,7.5l18.2-13.2-9.7-13.7c-1.2-3.7,1.9-6.2,5.2-4.2,3.3,3.5,5.9,9,9,12.4s.9,1.3,1.6,1.2l18.3-13c1.1-1.5-9.2-9.5-4.2-12.5s7.3,5.5,10,8l18.5-13.5c.4-.7,0-1.1-.4-1.7-2-3.5-8.1-9.5-9.2-12.8s2.7-5.9,5.5-3.5,6.1,9.8,9.2,12.7.5.8,1.2.7l16.7-12c1.4-2.4-9-8.9-3.9-12.6s8,7.8,10.2,7.8,14.9-11.3,17.5-12.5v-1.5s-26.2-36.5-26.2-36.5Z"/>
      <path class="st1" d="M244.5,9.8l26.2,36.5v1.5c-2.6,1.2-16.1,12.5-17.5,12.5-2.2,0-5.4-11.3-10.2-7.8s5.3,10.2,3.9,12.6l-16.7,12c-.6.1-.8-.4-1.2-.7-3.1-2.9-6-10-9.2-12.7s-6.6.2-5.5,3.5,7.2,9.3,9.2,12.8.8,1,.4,1.7l-18.5,13.5c-2.7-2.5-5.3-10.8-10-8s5.3,10.9,4.2,12.5l-18.3,13c-.7.1-1.2-.7-1.6-1.2-3.1-3.4-5.8-8.9-9-12.4-3.3-2-6.4.6-5.2,4.2l9.7,13.7-18.2,13.2c-3,.3-5.5-10.8-10.5-7.5-4.8,3.1,3.6,9.2,4.3,12.5l-16.8,11.9c-.7.3-.9,0-1.4-.5-3.3-2.9-6.1-9.7-9.5-13-3.1-1.9-6.7.2-5.4,3.9s7.7,9.3,9.3,13.1.5.9.2,1.4l-18.2,13c-1.8.3-5.3-11.1-10.4-7.9s5.1,10.4,4,12.4l-17.6,12.9c-.3.1-.5,0-.8,0-1.9-.5-7.9-11.9-10.6-13.5s-6.1.7-5.1,4l9.5,13,.2,1.4-18.2,13c-3.4-1.5-5.6-10.9-10.3-7.9s4.9,10.7,4,12.4-12.6,9.5-14.4,10.6-1.9,1.7-2.6.9l-26.2-37.3L244.5,9.8ZM253.1,35.4c0-3.2-2.6-5.9-5.9-5.9s-5.9,2.6-5.9,5.9,2.6,5.9,5.9,5.9,5.9-2.6,5.9-5.9Z"/>
      <circle class="st0" cx="247.3" cy="35.4" r="5.9"/>
    </g>
  </g>
  <g id="GTqWiJ.tif1" data-name="GTqWiJ.tif">
    <g>
      <path class="st0" d="M245.7,0l35.3,48.8L35.3,226.8,0,178,245.7,0ZM244.5,9.8L10.3,179.2l26.2,37.3c.7.7,1.9-.4,2.6-.9,1.8-1.1,14-9.8,14.4-10.6.9-1.7-9-9.2-4-12.4s6.9,6.4,10.3,7.9l18.2-13-.2-1.4-9.5-13c-1-3.4,1.9-5.8,5.1-4s8.7,13,10.6,13.5.5.1.8,0l17.6-12.9c1.1-2.1-8.9-9.3-4-12.4s8.5,8.1,10.4,7.9l18.2-13c.3-.5,0-1-.2-1.4-1.6-3.8-8.1-9.4-9.3-13.1s2.3-5.7,5.4-3.9c3.3,3.3,6.2,10.1,9.5,13s.7.7,1.4.5l16.8-11.9c-.7-3.3-9.1-9.4-4.3-12.5,5-3.3,7.5,7.9,10.5,7.5l18.2-13.2-9.7-13.7c-1.2-3.7,1.9-6.2,5.2-4.2,3.3,3.5,5.9,9,9,12.4s.9,1.3,1.6,1.2l18.3-13c1.1-1.5-9.2-9.5-4.2-12.5s7.3,5.5,10,8l18.5-13.5c.4-.7,0-1.1-.4-1.7-2-3.5-8.1-9.5-9.2-12.8s2.7-5.9,5.5-3.5,6.1,9.8,9.2,12.7.5.8,1.2.7l16.7-12c1.4-2.4-9-8.9-3.9-12.6s8,7.8,10.2,7.8,14.9-11.3,17.5-12.5v-1.5s-26.2-36.5-26.2-36.5Z"/>
      <path class="st1" d="M244.5,9.8l26.2,36.5v1.5c-2.6,1.2-16.1,12.5-17.5,12.5-2.2,0-5.4-11.3-10.2-7.8s5.3,10.2,3.9,12.6l-16.7,12c-.6.1-.8-.4-1.2-.7-3.1-2.9-6-10-9.2-12.7s-6.6.2-5.5,3.5,7.2,9.3,9.2,12.8.8,1,.4,1.7l-18.5,13.5c-2.7-2.5-5.3-10.8-10-8s5.3,10.9,4.2,12.5l-18.3,13c-.7.1-1.2-.7-1.6-1.2-3.1-3.4-5.8-8.9-9-12.4-3.3-2-6.4.6-5.2,4.2l9.7,13.7-18.2,13.2c-3,.3-5.5-10.8-10.5-7.5-4.8,3.1,3.6,9.2,4.3,12.5l-16.8,11.9c-.7.3-.9,0-1.4-.5-3.3-2.9-6.1-9.7-9.5-13-3.1-1.9-6.7.2-5.4,3.9s7.7,9.3,9.3,13.1.5.9.2,1.4l-18.2,13c-1.8.3-5.3-11.1-10.4-7.9s5.1,10.4,4,12.4l-17.6,12.9c-.3.1-.5,0-.8,0-1.9-.5-7.9-11.9-10.6-13.5s-6.1.7-5.1,4l9.5,13,.2,1.4-18.2,13c-3.4-1.5-5.6-10.9-10.3-7.9s4.9,10.7,4,12.4-12.6,9.5-14.4,10.6-1.9,1.7-2.6.9l-26.2-37.3L244.5,9.8ZM253.1,35.4c0-3.2-2.6-5.9-5.9-5.9s-5.9,2.6-5.9,5.9,2.6,5.9,5.9,5.9,5.9-2.6,5.9-5.9Z"/>
      <circle class="st0" cx="247.3" cy="35.4" r="5.9"/>
    </g>
  </g>
</svg>