<?xml version="1.0" encoding="UTF-8"?>
<svg id="Layer_1" xmlns="http://www.w3.org/2000/svg" version="1.1" viewBox="0 0 523.3 158.7">
  <!-- Generator: Adobe Illustrator 29.4.0, SVG Export Plug-In . SVG Version: 2.1.0 Build 152)  -->
  <defs>
    <style>
      .st0 {
        stroke-linejoin: round;
        stroke-width: 4px;
      }

      .st0, .st1 {
        fill: none;
        stroke: #ef5222;
        stroke-linecap: round;
      }

      .st1 {
        stroke-miterlimit: 10;
        stroke-width: 3px;
      }
    </style>
  </defs>
  <path class="st1" d="M26.4,5.1v7.4"/>
  <path class="st1" d="M23.6,8.8h5.5"/>
  <path class="st1" d="M11.1,15.9v10"/>
  <path class="st1" d="M7.1,20.9h7.9"/>
  <path class="st1" d="M34.4,24.2v14.4"/>
  <path class="st1" d="M29.9,31.4h9"/>
  <path class="st1" d="M466.8,1.5v7.4"/>
  <path class="st1" d="M469.6,5.2h-5.5"/>
  <path class="st1" d="M470.7,21.2v10"/>
  <path class="st1" d="M474.7,26.2h-7.9"/>
  <path class="st1" d="M449.3,14.3v14.4"/>
  <path class="st1" d="M453.8,21.5h-9"/>
  <path class="st1" d="M502.5,99.6v7.4"/>
  <path class="st1" d="M505.3,103.2h-5.5"/>
  <path class="st1" d="M517.8,110.4v10"/>
  <path class="st1" d="M521.8,115.4h-7.9"/>
  <path class="st1" d="M494.5,118.7v14.4"/>
  <path class="st1" d="M499,125.9h-9"/>
  <path class="st0" d="M483.7,94.5c0,22.7-30.3,40.9-67.3,40.7-4.5,0-8.9-.3-13.2-.9-2.6-.3-5.3,0-7.9.8-11.6,3.9-24.9,6.1-39.1,6-11.1,0-21.6-1.5-31.2-4.1-2.9-.8-6-.7-8.8.2-11.7,3.6-25.1,5.6-39.4,5.5-13,0-25.4-1.9-36.4-5.2-2.5-.7-5.2-.6-7.6.5-6,2.8-12.7,4.3-19.7,4.2-8,0-15.5-2.1-22.1-5.8-6.5-3.6-14.1-4.1-21.2-2-10.8,3.3-23.1,5.1-36.1,5-15.8-.1-30.5-3-42.8-8-5.5.9-11.3,1.3-17.3,1.3-1.8,0-3.6,0-5.3-.2-27.7,31.7-64.6,23.1-64.6,23.1,17.8,0,23.1-20.4,24.7-34.1-13.3-7.6-21.6-18.5-21.5-30.5.2-22.7,30.3-40.9,67.3-40.7,2.9,0,5.9.2,8.7.4,2.8.2,5.7-.2,8.3-1.2,12.4-4.8,27.3-7.6,43.2-7.5,15,.1,28.9,2.7,40.8,7.2,5.4,2,11.4,1.7,16.5-1,6.6-3.5,14.1-5.4,22-5.3,6.1,0,11.9,1.3,17.2,3.4,4,1.6,8.4,2.1,12.7,1,10.3-2.6,21.8,2,33.8,2,12,0,23.4,1.7,33.7,4.4,4.1,1.1,8.5,1.1,12.6,0,10.1-2.8,21.2-4.2,33-4.2,14,0,126.8-1.4,126.8,44.8Z"/>
  <path class="st0" d="M2,70.1c.4-1,26-33.4,71.8-29.4"/>
  <path class="st0" d="M181.3,146.8s21.1,18,52.6,5.5"/>
  <path class="st0" d="M441.2,39.7s9.7,0,24.9,10.3"/>
</svg>