<?xml version="1.0" encoding="UTF-8"?>
<svg id="Layer_1" xmlns="http://www.w3.org/2000/svg" version="1.1" viewBox="0 0 211.3 254.5">
  <!-- Generator: Adobe Illustrator 29.4.0, SVG Export Plug-In . SVG Version: 2.1.0 Build 152)  -->
  <defs>
    <style>
      .st0 {
        fill: #ee5828;
      }
    </style>
  </defs>
  <g id="qYvLGa.tif">
    <g>
      <path class="st0" d="M95.3,43.8v-9h-12.7c-2,0-6.2-4.5-7-6.5-1.2-3.2-1.2-15.4-.6-19.1S79.6.8,84.5.4c13.5-1.2,28.8,1,42.5,0,4.7.4,8.7,4,9.2,8.8s.4,13.2,0,17c-1.2,10.7-12.3,8.5-20,9-.9.6-.5,6.8-.3,8.3,31.9,3.7,60.8,20.9,78.3,47.9,41.8,64.5,2.4,151.4-73.4,162.1C45.1,264.2-16.5,193.9,4,120,15.4,78.9,52.6,47.3,95.3,43.8ZM82.4,27.2c.6.6,2.6,1.2,3.6,1.2l41.2-.3c1.3-.5,2.2-1.6,2.4-3.1.3-2.1.3-14-.2-15.7s-2.3-2.3-4-2.5c-12.1-1.4-26.6,1-38.9,0-2.2.1-4.4.8-4.7,3.2s-.3,11.2,0,14.5,0,2,.7,2.6ZM109.2,34.8h-7v8.5h7v-8.5ZM204.5,148.8c0-54.6-44.3-98.9-98.9-98.9S6.8,94.2,6.8,148.8s44.3,98.9,98.9,98.9,98.9-44.3,98.9-98.9Z"/>
      <path class="st0" d="M194.3,148.8c0,49-39.7,88.7-88.7,88.7S16.9,197.8,16.9,148.8,56.6,60.1,105.6,60.1s88.7,39.7,88.7,88.7ZM187.6,148.8c0-45.3-36.7-82-82-82S23.6,103.5,23.6,148.8s36.7,82,82,82,82-36.7,82-82Z"/>
      <path class="st0" d="M124.9,109.2c1.9.6-.8,7.3-.2,9h-25.4c0,0-2.5,14.2-2.5,14.2,4.8-2.9,9.6-3.8,15.2-3.2,19.3,1.8,20.7,32.6,5.1,40.5-12.2,6.2-32,1.1-32.8-14.6h10.5c2,10.2,16.9,11.9,20.9,2.2s1.7-12.8-1.7-16.7-12.7-3.9-16.5,0-2.3,4-2.6,4c-2.4.6-6.9-1.6-9.6-1l5.7-34.4h33.9Z"/>
      <path class="st0" d="M151,191.7c1.1-.2,1.5-.2,2.4.4s6.7,6.6,7,7c1,2.1-.8,4.8-3.1,4.9s-14-10.6-6.3-12.3Z"/>
      <path class="st0" d="M61.7,192.7c.8,1,.9,2.7.4,3.8s-5.6,5.8-6.2,6.3c-3.4,2.5-6.8-.7-5.3-4.3s5.4-5.6,6-6c1.6-1.1,3.7-1.6,5.1.1Z"/>
      <g>
        <path class="st0" d="M89.3,186.1c1.8-.7,2.1,1,2.2,1,1.4,0,4.1-3.3,6,.5,1-2.8,6.7-1.7,6.7.3v9.2c-.7.2-2.5,0-2.5-.7v-7.5c0-.7-2.4-1.2-3.2-.3-1.4,1.6-.4,8.2-.7,8.5s-2,0-2,0v-7.2c0-1.2-2.3-2.4-3.4-1.7-1.8,1.1,1.6,10.2-3.1,8.9v-11Z"/>
        <path class="st0" d="M31.2,145.3c3.2-.7,14-1.2,11.7,4.7s-12.7,2.9-13.8.7-.3-4.9,2.1-5.4Z"/>
        <path class="st0" d="M170,145.3c1.3-.3,8.6-.3,9.8,0,3.3,1,3.3,6.2-.9,6.9s-7.3.2-8.7-.2c-3.3-1-3.4-5.9-.1-6.7Z"/>
        <path class="st0" d="M105.1,71.9c5-.9,4.8,9.1,3.9,11.9s-6.3,3.6-6.8-.8-1-10.5,2.9-11.2Z"/>
        <path class="st0" d="M108.1,211.7c1.7,1.6,1.7,11.7-.2,12.9s-3.9.8-4.9-.5-1.1-8.8-.6-10.6c.6-2.6,4.2-3.2,5.8-1.7Z"/>
        <path class="st0" d="M156.5,93.3c2.6-.5,4.8,2.3,3.8,4.8s-5.8,6.3-6.6,6.8c-3.1,2-6.5-1-5.1-4.1s6.9-7.3,8-7.5Z"/>
        <path class="st0" d="M53.2,93.4c1.6-.1,8.3,6.2,8.8,7.4,1.4,3.1-1.9,6-4.9,4.4s-6.1-5.8-6.4-6.6c-.9-2.3-.3-5,2.5-5.3Z"/>
        <path class="st0" d="M122.2,197.1h-2.5v-7.7c0-.2-1-1-1.4-1.2-4.4-1.3-2.9,6.4-3.1,8.9h-2.5v-11c1.4,0,2.3-.5,2.7,1,1.4-2.5,6.7-1.1,6.7,1.2v8.7Z"/>
        <rect class="st0" x="107.2" y="186.1" width="3" height="11"/>
        <path class="st0" d="M107.2,184.1c0-.8-.2-2.3.5-2.8,2.6-1.8,4.4,3.8-.5,2.8Z"/>
      </g>
      <g>
        <path class="st0" d="M102.4,24.2c-.9-1.1-1-10.5-.5-12,.7-2.3,4.7-2.6,5.9-.6s.7,9.8.4,11.4c-.6,2.6-4.2,3.1-5.7,1.2Z"/>
        <path class="st0" d="M122.1,11c.8.8.9,11.2.5,12.5-.8,2.7-5.6,2.2-6.3-1s-.3-8.2,0-9.8c.6-2.6,4.3-3.2,5.8-1.7Z"/>
        <path class="st0" d="M88.4,24.2c-.9-1.1-.9-9.9-.5-11.5.6-2.9,4.6-3.3,5.9-1.1s.7,9.8.4,11.4c-.6,2.7-4.4,2.9-5.7,1.2Z"/>
      </g>
    </g>
  </g>
</svg>