<?xml version="1.0" encoding="UTF-8"?>
<svg id="Layer_1" xmlns="http://www.w3.org/2000/svg" version="1.1" viewBox="0 0 647 667">
  <!-- Generator: Adobe Illustrator 29.4.0, SVG Export Plug-In . SVG Version: 2.1.0 Build 152)  -->
  <defs>
    <style>
      .st0 {
        fill: #f15525;
      }

      .st1 {
        fill: #fffefd;
      }

      .st2 {
        fill: #f2a37e;
      }
    </style>
  </defs>
  <g id="whzLj4.tif">
    <g>
      <path class="st1" d="M647,0v667H0V0h647ZM568.6,73.9c-.4-.4,1.4-8.4-3.6-6.9s-1.2,6.5-1.9,7.4-7-.1-7.4,2.3c-1.2,5.9,5.8,2.7,7.5,4s-1,8.1,4,6.6,1.2-5.9,2.2-7.3,7.9,1.2,6.2-4.6-6.3-.8-6.9-1.3ZM454.1,349.7c3.2,6,8.7.6,10.9-3.3,6.6-11.8-2.5-21.9-12.8-27s-5.8-1.6-8.2-2.8-1-.5-.9-1.4c18.4-7.5,39.6-24.7,36.4-47.2s-2.7-7.8-4.1-10.4c-11-20.5-34.9-33.7-54.4-45.1-4.9-2.8-10.3-4.8-15.3-7.4-1.3-6.3-2.4-12.7-4.5-18.7-2.9-4.4-9.7-2.9-10.6-10.9s1.3-16,6.3-23.4.2-2.6,1.7-.5c2.4,3.5,4.2,12,6.1,16.2s5.9,8.7,11.1,11.9c6,3.7,16.7,3.5,23,.5,8.9-4.2,15.6-14.1,13.7-24.2s-8.9-2.4-13.6-3.9c-13.9-4.5-10.6-18.1-16.6-28.2-16.8-28.3-58.6-27.2-84.7-12.9-23.2,12.8-33.9,25.7-48.5,47s-10.2,18-14.9,21.1-5.5,2.1-7,3.8-2.3,3.5-2.5,4.1c-1.3,2.8-3.2,10.7-5.1,12.3-13.2,6.2-25.6,12-37.6,20.3s-27.5,21.3-33.4,35.1c-11.3,26.2,4.3,41.7,24.8,55.3,1.9,1.1,15.9,6.5,16.2,7.3s0,1.2-.5,1.5c-9.8,3.8-19.8,10.2-17.4,22.4s17.1,11.9,24.3,15.7,8.4,4.7,7.3,6.7c-10.7,7.9-20.7,17-32.1,23.9-13.5,0-26.9-1.7-40.3-2.4s-14.6.1-21.5-.5-2.9-1.1-4.5-1-4.9,1.3-5.8,3.2c-2.5,5.1-3.6,12.4-4.5,18l-.7.8c-8.7-1-18.1-2.1-26.9-.9-6.9.9-17.6,4.7-22.8,9.2-10,8.5-12.9,32.1-6.2,43.2,10,16.7,31.3,16.8,48.5,17,1.3,0,7.6-1,8.2-.5,0,5.9.7,11.9,1.5,17.7,1.3,8.8,4,24.7,7.4,32.6,2.8,6.5,5.3,8,12,4.8,1.2-.6,3.7-2.9,5-3.6,17.8-9.5,34.6-21.1,50.7-33.5,7.6-5.9,14.3-13,21.9-19,.4,11.1,1.5,22.1,1,33.2-.5,12.2-2.6,24.4-4,36.5-2.2,18.6-4.2,37.4-7.1,55.9s-5.3,26.1-4.4,27.2c3.2.8,6.3,1.7,9.4,2.5s6,1.6,8.9,2.4c4.1,1,8.4,1.9,12.6,2.6,1.1-.8.3-12,.5-14.2,2.9-25,4-50.7,5.5-75.9,1.5-24.7,1.8-53-1-77.4s.9-10.6-1.2-12.8-11-1.3-14.4-2.1c-6.8-1.6-10.7-9.3-14.1-14.9s-3.1-8.6-7.3-5.2c-3.1,2.5-.8,5.3-.5,7.9.5,4.4.6,9.2-3.4,11.7-6.2,3.9-16.6,4.2-23.9,5.1-.8,0-1.3.8-2.1.9-4.6.7-10.5-.4-15.2,0,.6-4.6-.6-8.9-1-13.2-.9-11.6-1.7-23.5-4.6-34.8-1.1-4.4-3.7-8.8-4.4-13.4,17-.1,34.1,1.9,51.1,1.9,8.8-4.6,16.4-11.5,24.2-17.4,2.5-1.9,5.8-3.8,8.1-5.5,0,1,.6,1.4,1.3,2,17.8,16.1,28.5,37.8,36.6,60.4,2.5,7.1,3.6,12.5,4.7,19.8,5.2,33.2,7.3,66.9,5.4,100.5-1,17.3-1.1,35-1.5,52.5-.2,9.9-.5,19.8-.5,29.7.9.9,23.1.5,26.5.5s.8.5,1.7.5c9.9.1,19.9-.2,29.8,0,.4-3.8-2-7.1-6-5.5.5-2.8,2-4,5.2-3.5s3,5,5.5,5.5c3.1-.3,6.5-.2,9.5-.5,5.8-.5,3.1-5.4,2.8-9.2s1.6-7.7-2.7-8.3c-1.6-.2-10.3-.2-11.4.1-2.3.7-2.2,6.7-8.5,5.3-2.8-.6-3.3-3.7-6.5-1.3s-2.6,12.2,2.5,12.4c.9,0,4.8-1.3,2.2,1.3s-4.6.9-6,0-1-1.9-1.7-2.8c-1.8-2.2-5.6-1.5-8.3-1.5v-6.5c2.3,0,5.1-1,7.6-.5,1.1-2.3,5.1-6.5,7.8-5.3s2.3,3.4,5,2.5,5.1-15.2-2-13.1c-3.1.9-2.1,5.8-7.6,2.8-1.5-.8-3.3-4.7-3.7-5-1-.7-5.1-.5-6.7-.5v-5.5c1.7,0,4.1.2,5.6-.1s1.9-1.8,3.3-1.9c-.8,4.7-1.5,13.2,5.9,10.2s1.1-3.5,4.7-2.5c3.6,1,4.2,5.4,8.7,5.8,1.5.1,8.2-.2,9.3-.5s1.6-1.5,1.7-2.3c.4-1.8.3-13.7-.4-14.9s-1.4-.7-1.4-.8c-.5-.8,2.8-3.4,3.5-4.2,10.9-14.1,5.4-29.5,2.1-45.1-2-9.2-2.5-21.3-3.2-30.8-.2-2.8.2-5.7,0-8.5,3.6-1.7,6.1-5.6,8.7-8.6s4.6-3.5,5.2-6,.3-12.9.1-16.4c-.2-5.1-.5-12-1-17-.6-6.1-2.9-4.7-6.9-6.5s-5.3-3.3-7.5-4.2l.5-1.5c1.5.6,8.9,2.8,10.3,3,4.1.4,3.8-5,5.2-8.1s.8-.5,1.1-1c2.2-4.1-.3-3.1-2.6-4.2s-4.6-2.8-6.5-3.7c.4-1.7.8-5.6,3-6,2,1.1,7.2,3.4,9.3,3s3.4-5.2,4.3-6.6.8-.4,1.1-1c3.6-6.5-1.5-5.8-5.6-9.4l3-4.5c.2.1.9,0,1.4.3,1.9,1.2,3.1,3.4,5.7,2.6s6.5-6.6,6.8-7.1c2.8-4.3,1.1-6.1-2.2-8.8s-.2-.9-.3-1c1.1-.2,2.8-1.9,3-3,.1,0,.9-.2,1.3.2,1.9,1.5,2.9,4.1,6,2.4,3.1-4.3,12.1-7,6.7-13,0-2.1,2.9-2.1,3-4,0,0,.7,0,.9.3.9,1.1,2.3,3.1,3.7,2.6.9-2.4,10-7.1,10.3-8.3s-1.7-2.5-2.2-3.2-.2-1.3-.3-1.5c2.1-.4,3.1-3,5-4,1.4-.3,1.6,3.3,2.6,3.9,2.2,1.3,6.4-2.4,8.4-3.6s5.1-1,4.9-4-1.7-5.7-2-6.3l2.5-1ZM91.4,126.4c.4-.4,6.4,1.4,6.5-2.7s-5.5-2.2-6.2-3.2,1.3-5.5-1.6-6.4c-5.3-1.7-2.9,5.5-4.2,6.3s-6.5-.6-7.2,2.1c-1.2,4.1,4.5,4.3,7.3,4-.6,2.2-1.1,6.4,1.9,6.9s3.2-6.4,3.6-6.9ZM574.6,115.4v7c-3.4.2-8.5-1.5-7.5,3.7s6.2.7,7.3,2.2-1.4,8.3,3.1,8.4,1.9-6.7,2.8-7.9,6.3,1,6.3-3.7-6.3-2.4-6.6-2.7c-.6-.6,1.8-9.3-3.2-8.5s-1,1.6-2.3,1.5ZM605.4,160c-.2-.3-1.7-.6-2.2-.6-3.9.2-1.4,5.1-2.3,6.5s-6.2-.9-6.8,2.9,5.8,1.8,6.7,3.1-.5,7.2,1,7.6c6.3,1.5,3.2-6.3,4.6-7.3s2.6,0,3.7-.3c3.1-.9,2.9-5.2-.9-5.4s-2.4.9-3,0c-.5-1.3-.2-5.5-.8-6.4ZM100.4,169.9c-.6-3,1.8-9.6-2.8-9.5s-1.7,7.7-3.2,8.8-8.1-1.9-7.3,3.2,5.5,1.5,6.6,2.9-2.3,8.3,1.6,9.4c5.9,1.7,2.9-7.9,4.6-9.2s9.1,2,7.4-3.4-5.2-2.3-6.9-2.3ZM556.6,169.3c-1.3-.8,1.1-10.3-4.7-8.3s-1.8,1.6-1.8,1.7c-.1,1.2,2.2,4.7.8,6.7s-6.2-.7-6.8,2.2c-1.2,6.2,4.4,2.5,6.5,4s-.2,5.9,2.3,6.7c5.3,1.7,3.1-6.4,3.6-6.9s5,.9,5.5-2.8-4.5-2.7-5.4-3.3ZM594,284.8c5.6,5.9,14.5,10.1,20.6,15.6,12,2.6,5.7-11.2,3.6-17.1s-6.9-15.2-9.6-22.9,0-4.1,2.9-6.3c8.6-6.4,20.4-12.7,28.3-19.5s2.6-2.5,2.7-2.7c1-4.5-.9-6.7-5.2-7.1-6.5-.6-14.4-.8-21-1s-12.9.4-19.3-.2c-.8-.5-2.2-5.5-2.6-6.8-3.3-10.3-5.3-21.5-9-31.5s-6.5-5.4-9.5-1.2l-12.2,39.4c-1.3.5-2.6.5-4,.5-4.3-.2-9.1-.9-13.5-1-7.1-.3-18.4-1.3-25-.5s-5.8,6.9-2.3,9.5c7.1,5.4,15.1,9.6,22.2,15,1.3,2.1,11.4,7.5,11.8,8.8s-1.2,5.2-1.7,6.7c-3.8,10.2-9.4,21.1-12.6,31.4s-1.9,4.8.4,7.4,4.4,2.2,6.5.9l24.5-20.1c2.9-4-.8-8.6-5.5-7.4s-2.9,2.7-5,3.3c1.2-7.9,7.1-17.1,8.8-24.5s-3.5-5.8-6.2-8-7.9-5.7-11.8-8.6-2.2-2.8-4.3-2.9c-.1-.8.7-.5,1.2-.5,3.2-.2,6.7-.4,9.8-.5s3,0,4.5,0c-.5,1.6,3.4,1,5,1s2.3-.5,3-.5c1,0,2,.6,3.1.4,4.1-.7,3.7-5.7,4.5-8.5,1.3-4.9,2.6-9.7,3.9-14.6s-.6-1.4,1.5-1.2c2,7.2,4.2,14.7,6,22s-.2,1.5.3,2.5c1.8,3.7,11.3,2.7,15,3s4.8,1.2,7.3,1l-9.6,7.5c-1.3,1.1-8.5,8-8.8,8.8s-.2,2.2.1,3.2c4,5.8,5.2,12.8,7.7,19.3.4,1.4-1.3.2-1.9.2-4,0-5.1,2-5.5,5.5s-.3.3-.3.7c0,2.2,1.2,1.7,1.3,1.8ZM64.9,212.3h-7.7c-.5,0-1.3,2.1-1.3,2.8,0,4,5.9,2.5,8.5,2.7v7.2c0,1,4.2,2.7,4.9-.6s-.4-4.9.8-6.1,5.2,0,6.9-.5,1.9-2.4,1.9-2.8c0-3.7-7.8-1.4-8.8-2.7s1.6-7-2-7.6-3.1,4.7-3.2,7.5ZM114.4,215.3h-7c0,0-1,1.3-1,1.4-1.4,6.6,5.6,3.1,7.4,4.2s-1.9,8.2,2.8,8.5,3.1-5.9,3.3-8.5c2.4.9,8,.9,7.5-2.7s-6.5-1.7-7.3-2.7,1.5-6.9-2-7.5c-4.9-.9-3.6,4.3-3.7,7.5ZM585.3,255.1c5.3-6.8-2.6-14.7-9.2-9.5s-3.9,6-1.9,9.3,8.6,3.4,11.2.2ZM145.6,306.5c0-30-24.3-54.3-54.3-54.3s-54.3,24.3-54.3,54.3,24.3,54.3,54.3,54.3,54.3-24.3,54.3-54.3ZM435.7,461.7c-3.1,7.1-5,13.1-5.5,21.2-1.9,30.7,3.3,61.1,8.4,91,3.1,18.5,8,35.8,13.1,53.9,3.1,5.1,8.5,3,9.4-2.5-8.5-27.3-14-54.7-17.9-83s-5-41.1-3.5-62.4c0-1.3.8-7.2,1.5-7.7,7.7,4.4,15.5,8.6,23.6,12.1,22.5,9.6,51.1,21,75.1,24.8s8.8,1.4,11.9,1.5,5.1,0,7-2,3.1-7.8,3.5-9.5c1.1-4.5,1.8-9.3,1.7-14l14.5,1.2c1.4,1,0,11.8,0,14-.2,10.4-.1,20.7-.5,31s-1.9,16.9-1,24,5.4,7.1,8.5,3.4,1.3-13.5,1.5-17.9c.4-8,.7-15.9,1-24s.7-20.5,1-30.7c7.4-1.5,14.6-5.5,18.9-11.9,6.3-9.3,8.7-24.2,5.8-35.1-1.7-6.2-12.9-22.8-18.6-25.4-1.8-.8-5.8-1.4-7.1-2.3-2.2-1.5-.6-5.4-.6-7.5-.8-41.7-.3-83.6-.4-125.4.3-6.4-5.4-11.1-9.6-4.6-.6,28.7-.6,57.7-.4,86.6s.5,12,.5,17.9c0,9.9.9,23,0,32.5s-2.1,2.2-4.7,2.8-10.3,3.4-10.9,2.9c-.7-7.5-1-15.2-2.6-22.6s-1.9-4.6-2.2-6.3c-.7-3,.1-7.2-4-8s-11.3,1.8-14.6,2.6c-12.2,2.9-22.9,7.3-35.7,8.3-6.3.5-11.8.8-18,1.5-2.3.2-4.7-.1-7,0-5.8-4.3-11.9-8.4-17.7-12.8s-10.2-9.8-13.3-9.7c-3.9.1-5.2,3.6-3.6,6.9s2.7,2,3.4,2.7c5.6,5.5,10.7,9.4,17.1,14.1s6.3,5.5,9.4,7.1c5.2,2.7,11.5.2,17.2-.2,7.7-.5,16.4-.1,23.9-1,6.2-.7,13.4-3.9,19.6-5.4s3.8-.7,5.7-1c-3,8.8-6.4,17.9-7,27.2-1.1,17.7.4,39.9,3.5,57.2-2.6-.6-5.7-.6-8.2-1s-6.5-1.2-7.4-1.6-.7-1.1-1.2-1.4c-3.8-1.8-10-2.9-14.2-4.2-19.3-6.1-38.8-12.2-58.1-18.3-1.9,0-3.6-.5-5.2.7s-5.1,7.1-5.7,8.3-.2,1.7-.3,1.9ZM407.2,639c6.7-.3,12.8-2,19.2-3s2-.9,2.2-1.1c.5-.9-.2-8.9-.4-10.6-.6-5-2.6-10.6-3-15.5-.6-9.3,4.1-18.1,1.8-27.3s-3.9-5.2-4.3-8.2,1.2-6.5,1.5-9.5c.6-5.3,0-11.3-1.8-16.2s-6.9-12.6-11-15.5c-5-3.5-7.8,2.5-8.2,6.7-2.9,27.9-1.1,56.4-4.5,84.4l-2.5,15.5c0,.5,3.3.2,4,.3,2.3,0,4.7.1,7,0Z"/>
      <path class="st0" d="M145.6,306.5c0,30-24.3,54.3-54.3,54.3s-54.3-24.3-54.3-54.3,24.3-54.3,54.3-54.3,54.3,24.3,54.3,54.3ZM88.9,262c-18.7,1-34.8,13.6-40.2,31.6-5.4,17.9.9,37.3,15.9,48.6,15,11.2,35.4,11.9,51.1,1.6,15.7-10.2,23.3-29.2,19-47.4-4.9-21-24.2-35.5-45.8-34.3Z"/>
      <path class="st2" d="M100.4,169.9c1.7,0,6.3.6,6.9,2.3,1.7,5.4-6.7,2.9-7.4,3.4-1.8,1.3,1.2,10.9-4.6,9.2s-.5-7.8-1.6-9.4-5.9,1.3-6.6-2.9,5.5-2,7.3-3.2-1.4-8.8,3.2-8.8,2.2,6.5,2.8,9.5Z"/>
      <path class="st2" d="M574.6,115.4c1.2.1,1-1.3,2.3-1.5,5.1-.8,2.6,7.9,3.2,8.5s6.6-.7,6.6,2.7-5.5,2.5-6.3,3.7,1.7,8-2.8,7.9-2-6.9-3.1-8.4-6.6,1.1-7.3-2.2c-1-5.2,4.1-3.5,7.5-3.7v-7Z"/>
      <path class="st2" d="M64.9,212.3c.2-2.8-1.3-8.2,3.2-7.5s1.4,6.8,2,7.6c1,1.3,8.9-1,8.8,2.7s-1.6,2.7-1.9,2.8c-1.7.5-5.7-.8-6.9.5s-.5,4.4-.8,6.1c-.7,3.3-4.9,1.6-4.9.6v-7.2c-2.6-.2-8.5,1.2-8.5-2.7s.8-2.8,1.3-2.8h7.7Z"/>
      <path class="st2" d="M114.4,215.3c.1-3.2-1.2-8.4,3.7-7.5s1.1,6.3,2,7.5,6.8-.5,7.3,2.7-5.1,3.7-7.5,2.7c-.1,2.7,1,8.8-3.3,8.5s-1-7.4-2.8-8.5-8.8,2.4-7.4-4.2.9-1.4,1-1.4h7Z"/>
      <path class="st2" d="M568.6,73.9c.6.6,6.1-1.2,6.9,1.3,1.7,5.8-5.3,3.3-6.2,4.6s1.1,6.4-2.2,7.3c-5,1.5-2.7-5.7-4-6.6s-8.7,1.9-7.5-4,6.7-1.4,7.4-2.3-1.3-6.4,1.9-7.4c5.1-1.5,3.2,6.5,3.6,6.9Z"/>
      <path class="st2" d="M556.6,169.3c.9.6,6-1,5.4,3.3s-5.1,2.4-5.5,2.8,1.6,8.6-3.6,6.9-1.3-6-2.3-6.7c-2.1-1.5-7.7,2.3-6.5-4s5.9-1,6.8-2.2c1.4-2-.9-5.5-.8-6.7s1.7-1.7,1.8-1.7c5.8-1.9,3.5,7.6,4.7,8.3Z"/>
      <path class="st2" d="M91.4,126.4c-.4.5.5,7.7-3.6,6.9s-2.4-4.7-1.9-6.9c-2.8.3-8.4,0-7.3-4s5.6-1,7.2-2.1-1.1-8,4.2-6.3.8,5.4,1.6,6.4,6.3-.6,6.2,3.2-6.1,2.3-6.5,2.7Z"/>
      <path class="st2" d="M605.4,160c.6.9.3,5.1.8,6.4.6,1,2,0,3,0,3.9.1,4.1,4.5.9,5.4s-2.9-.2-3.7.3c-1.4,1,1.6,8.8-4.6,7.3s-.3-6.5-1-7.6-7.4,1-6.7-3.1,6-1.6,6.8-2.9-1.6-6.3,2.3-6.5,2,.3,2.2.6Z"/>
      <g>
        <g>
          <path class="st2" d="M400.2,639c-.7,0-4,.2-4-.3l2.5-15.5c3.5-28,1.6-56.4,4.5-84.4.4-4.3,3.3-10.2,8.2-6.7,4.1,2.9,9.3,10.8,11,15.5s2.4,11,1.8,16.2-1.9,6-1.5,9.5,3.6,5.6,4.3,8.2c2.3,9.2-2.4,18-1.8,27.3.3,5,2.3,10.5,3,15.5s1,9.7.4,10.6-1.8,1-2.2,1.1c-6.4,1-12.5,2.7-19.2,3,0-.9.8-1.4,1-2.3,2-10.3,2.3-21.5,3-31.9,1.4-20,2.6-39.9,2-59.9s1-8.2-.5-10c-3.6-4.1-6.6,1.9-7,5.5-.5,5.5.6,13,.5,19-.3,16.9-1.8,36-3,52.9-.7,9-3.2,17.8-3,26.7Z"/>
          <path class="st0" d="M407.2,639c-2.3.1-4.7,0-7,0-.2-9,2.3-17.8,3-26.7,1.3-17,2.7-36.1,3-52.9.1-6-1-13.5-.5-19s3.4-9.6,7-5.5.4,7.3.5,10c.6,20.1-.6,39.9-2,59.9-.7,10.4-1,21.6-3,31.9s-.9,1.4-1,2.3Z"/>
          <g>
            <path class="st2" d="M246.3,373.7c1.5-1.1,7.6-6.9,9.2-6.5l5.2,5c2.2,1.3,4.2,3.3,6.3,4.5s1.7.4,1.8.5c.6.7-1.4,2.3-.9,3.4s4.4,3.5,5.2,4.3c1.9,1.8,3.2,5.2,6.2,5.3-.3,1.5,1,1.5,1.3,2.9l2.7,2.1c0,0-.2,1.1-1,1.3-.2,2.2,6.5,8.5,8,10.7,0,2.2,2.6,4.6,3,6.5.9,4.1.5,3.7,2.5,7.4s3.2,6.2,3.5,6.4c.4.3,2,.4,2.5.2-.5,2.1,1.2,3.1,1.5,5-1.2.6-1.2,3.4-.9,4.6s3.7,8.6,4.2,8.8,1.7.2,2.2,0l.5,4.5c-.5.1-2.4,2-2.7,2.5-3.1,5.6-3.5,24-2.8,30.7s.6,6.7,1.9,8.6l13.1,12.4c-.6,8.3.8,17.7,0,25.9s-10.7,19.8-11.5,29.9,1.5,17.2,7.3,25.2,4.4,4.8,4.6,5.4c.8,2.6-1.4,8.4,2.4,9.1s4.1,0,5.7,0v5.5c-1.4,0-2.8-.1-4.2.1s-1.3,1.5-2.7,1.5c-1.7,1.9-1.7,14.1,0,16.1s4.9,1.3,6.4,1.3v6.5c-1.3,0-6.9-.2-7.4.6l-.6,6.9c-3.3,0-25.5.4-26.5-.5,0-9.9.3-19.8.5-29.7.4-17.5.5-35.1,1.5-52.5,1.9-33.6-.2-67.3-5.4-100.5-1.1-7.3-2.2-12.7-4.7-19.8-8-22.6-18.8-44.3-36.6-60.4-.6-.6-1.2-1-1.3-2Z"/>
            <g>
              <path class="st0" d="M228.3,628c-3.2-.8-6.3-1.8-9.4-2.5-.9-1.1,3.8-23.8,4.4-27.2,2.9-18.5,4.9-37.3,7.1-55.9s3.5-24.2,4-36.5c.5-11.1-.6-22.2-1-33.2-7.6,6-14.3,13.1-21.9,19-16,12.4-32.8,24.1-50.7,33.5-1.3.7-3.8,3-5,3.6-6.7,3.2-9.2,1.7-12-4.8-3.4-7.9-6.1-23.8-7.4-32.6s-1.6-11.8-1.5-17.7c-.6-.6-6.9.5-8.2.5-17.2-.1-38.4-.3-48.5-17s-3.8-34.6,6.2-43.2c5.2-4.4,15.9-8.2,22.8-9.2,8.8-1.2,18.1-.1,26.9.9l.7-.8c.8-5.6,2-13,4.5-18s3.9-3.2,5.8-3.2,2.9.9,4.5,1c6.9.6,14.6.1,21.5.5,13.5.7,26.9,2.4,40.3,2.4,11.5-6.9,21.4-16,32.1-23.9,1.1-2-5.6-5.8-7.3-6.7-7.2-3.8-22.3-5.7-24.3-15.7s7.6-18.5,17.4-22.4c.6-.3.7-1,.5-1.5-.3-.8-14.3-6.2-16.2-7.3-20.5-13.5-36.1-29-24.8-55.3s21.1-26.5,33.4-35.1,24.4-14.1,37.6-20.3c1.8-1.7,3.7-9.6,5.1-12.3s2.1-3.6,2.5-4.1c1.5-1.7,5-2.5,7-3.8,4.7-3.1,11.3-15.8,14.9-21.1,14.6-21.4,25.3-34.2,48.5-47,26-14.3,67.9-15.4,84.7,12.9,6,10.1,2.6,23.7,16.6,28.2,4.7,1.5,12.5-2,13.6,3.9,1.9,10.1-4.8,20-13.7,24.2-6.3,3-17,3.2-23-.5-5.2-3.2-8.5-6.3-11.1-11.9s-3.7-12.7-6.1-16.2-1.3,0-1.7.5c-5,7.4-7.3,14.1-6.3,23.4s7.7,6.5,10.6,10.9c2.1,6,3.2,12.5,4.5,18.7,5,2.6,10.4,4.6,15.3,7.4,19.4,11.3,43.4,24.6,54.4,45.1s3.7,7.6,4.1,10.4c3.1,22.5-18,39.7-36.4,47.2-.2.9.2,1,.9,1.4,2.4,1.2,5.5,1.4,8.2,2.8,10.3,5.1,19.4,15.2,12.8,27s-7.7,9.3-10.9,3.3,3.1-6.6,3.5-10.8-2.2-6-4.9-8.2c-6.3-5-13.7-6.2-21.5-7.4-3.3,8.1-6.3,16.8-12.6,23.2-.4,1.6,1.1,1.1,1.4,2,.6,1.8-.6,4.4.5,6.5,2.3,4,5.6,1.8,7.8,3.2s3.6,5.5,4.2,6.5-.1.9.3,1.5,2.6,1.5,2.2,3.2-9.3,5.9-10.3,8.3c-1.5.5-2.8-1.5-3.7-2.6s-.9-.3-.9-.3c-.3-.3-.8-2.2-1.6-3.2s-3.5-3.2-3.8-4.2c-.8-2.5,1.2-3.6,1.4-5.4.5-4.8-3.6-2.2-5.2-2.7s-.4-1.9-2-1.4-3.1,3.1-4.1,3.9-3.1,1.9-3.2,2.1c-.5.9,1,2,1,3.2s-1.6,1.9-.6,3c1.4,1.6,3.4.2,4.8.3s4.7,2.7,5.6,3.6.9,1.8,1.9,2.8,2.6,1.8,2.8,2c5.4,6-3.6,8.7-6.7,13-3,1.8-4.1-.9-6-2.4s-1.2,0-1.3-.2,0-.7-.3-.9c-.6-.5-4.1-3.6-4.2-3.9-.7-2.6,1.4-7.4-1.7-9.2s-3.2-.2-5-.5-1.6-1.2-2.9-1-.3.8-.7,1c-5.3,2.5-10.3,5.5-15.6,7.5v-3.5c-.6.3-1.3.5-1.9.8-9.2,5.2-18,13-27.2,18.3-3,1.3-2.8,10.8-4.7,11.3-2.6.8-3-2.7-3.9-3.9s-4.8-3.9-6.5-5c-3.2-2.3-11.9-7.9-15.5-8s-7,1.5-8.2,2.3c-3.4,2.3-1.2,5.9-2.2,7.3s-6.5,2.8-7.6,3.4-2.7,2.4-4.7,2.1c-1.5-2.2-8.2-8.5-8-10.7.9-.2,1-1.2,1-1.3.6-.5,2.9-1.4,3.6-2,1.8-1.4,3.5-2.8,5.4-4.2s1-2.8,3.7-2.2.3,1,1.3,1.3c1.9.5,5.7,1,4.5-1.7-4.9-1.7-9.1-5.6-13.9-7.1.2,2.4-1.8,3.4-3,4.9s-.3,1.1-.8,1.6c-1.2,1.3-4.3,2.6-4.7,4.5-3,0-4.3-3.5-6.2-5.3s-5-3.8-5.2-4.3c-.5-1.1,1.5-2.7.9-3.4s-1.1,0-1.8-.5c-2.1-1.3-4.2-3.3-6.3-4.5l-5.2-5c-1.6-.5-7.6,5.3-9.2,6.5-2.3,1.7-5.6,3.6-8.1,5.5-7.9,5.8-15.5,12.8-24.2,17.4-17,0-34.1-2-51.1-1.9-1.9,0-4.5-.3-6.3,0s-.9-.3-.7.8c.2,1.5,3.4,7.1,4.2,9.3,10.7,30.4,9.1,65.1,1.2,95.9-1.4,5.5-3.5,10.8-4.8,16.4.8.9,13.4-7.3,14.9-8.3,16.4-10.8,35.4-25.2,49.8-38.4s7.4-7.4,11.2-11c1.9-.5,4.7-.7,6.2.7,2.3,2,3.9,12.5,4.2,15.8,3.3,34.2-2.4,67.9-6.9,101.5-2,14.6-4.7,29-7,43.4s-.2,5-.5,7.2ZM442.7,166.4c3.5-6.8,1-4.5-4-5.7-8.2-2-15.3-8.5-18.2-16.3s-2.1-12.6-8-19.9c-16.8-20.6-49.5-17.5-70.8-5.9-19.6,10.6-30.5,22.3-42.8,40.3s-6.3,10.2-10,14.9c1.5.8,3-.7,4.4-1.1s3.8-.5,4.1-.7,0-.7,0-.9c1,0,1.8-.2,2.8-.5,21.1-7.5,44.1-7.7,65.8-1.9s11,4.8,16.9,6.4c0-.9,0-1.6-.3-2.5-2.2-6.1-12.3-15.2-17.3-19.7s-6.6-4.4-7.7-6.8,1.8-1.7,2.7-2c-.2,1.1.6,1.1,1.2,1.5,5.5,3.7,13.9,10.9,18.2,15.9s1.7,3.6,3.5,4.1c.7-4.5,2.4-8.7,4.5-12.7s5.6-9.7,8.5-10.2,6.3,1.8,8.5,3.5c-.3-4.9-1.9-11.5-4.6-15.7s-3.7-4.1-4.6-4.6c-4-2.4-5.9-1.3-10-1.7s-5.3-.9-3.6-3.5,9.1-.6,10.5-.4,2.3.8,3.2,1.3c17.7,8.3,7.9,34.2,28.5,42.4,1.4.6,5.1.6,5.5,2.1.6,2.6-1.1,2.7-3.2,2.7-3.2,0-6-1.8-8.7-3.3l-7.5-6.7c2.2,12.3,12.4,20,24.7,15s6.1-3.8,7.7-7ZM409.9,156.9v.5c.3-.2.3-.3,0-.5ZM274.8,187.9c-3,1.1-2.9,2.6-4.2,5.5s-.6,1.3,0,1.5l21.1-6.4c19.8-3,43.4-5.9,63.1-2.1s15.2,4,21.5,6.3,13.3,6.2,20.2,8.7l-1.7-11.2c-.3-.5-1.5-.5-2.2-.9-24.4-14.4-48.4-20.2-77-15.4-14.1,2.4-27.5,9-40.8,13.9ZM470.6,269.8c.9-1.2-.3-4.2-.8-5.5-7-18-31.4-32.3-47.3-41.6-5.8-3.4-11.1-6.9-17.3-9.7-25.5-11.3-48.9-22-77.8-20.7-8.8.4-18.4,1.5-27,3-26.7,4.4-50.8,16.3-73.1,31s-5.4,2.7-6,4.5c-.9.2-1.2-.2-1.3,1.5,1.6-.7.9-.6,1.3-1.5,3.9-.9,4.7-2.8,7-4s1.4-.3,2-.5,1.3.5,1-1c15.4-6.7,30.6-13.9,46.9-18.3,48.4-13.2,92.5-4.8,136.6,17,19.5,9.7,46.3,25.2,55.4,45.8s.6,3.5,1.2,3.5c.6-1.3.6-2.8-.7-3.5ZM377.2,218.8c1.8,2.2,6.8,13.6,1.7,13.5s-1.3-1-2.1-1.6c-9.5-7.2-18-7.1-29.2-4s-1.5,2-3.3.9,3.2-10.9,5.1-12.3l4.8-3.2c.6-1-7.1-2.2-7.9-2.4-17.2-2.7-34.6-2.2-51.7,1s-11.4,2.9-17,4.4c-3.5,6.3-3.8,13.7-3.4,20.8s.9,4.5,1.8,6.7,1.8,2.1,1.3,4c4.8-.8,9.5-2.9,14.5-2.5,0-1.7,1-3.9,1.8-5.4,6.4-11.7,23.9-9.4,27.2,3.4s.3,6.5,1,9.7c-.2,1.3-4.5,3.8-5.3,6.2-1.7,5,.6,8.5,4.9,10.8s14.2,3,18.6-1.8,1.6-2.2,1.8-4.4,0-.3,0-.5c1.5.8,1.1-3.8,1-4s-.7,0-1,0c0-1.2,0-2-.5-3.3-.7-1.8-3-2.6-2.5-4.4s3.6-1.4,4-1.8-.2-7.5.5-9.7c3.1-10,16.6-12,23.8-5l4.5,7.7c6.3,0,12.5,1,18.7,2.1l-3-8.3c-.5-3.4.6-8.2,0-11.4s-1.8-2.6-1.7-4.3c-2.2-1-4.4-1.6-6.8-2,.3-1.7-3.1-1.2-4-1.5.6.7,1,1.7,1.6,2.4s.8,0,.9.1ZM373.4,220.6c-4.7-4.6-10.8-6.6-17.4-5.7s-6.4,5-7.1,6.1-.7,1.9-.7,2.8c9.3-3.7,19.7-3.6,28,2.5.4-2.5-1.1-4.1-2.8-5.7ZM261.8,225.3c.7-.4,4-3.9,5-4.8s1-1.3.8-1.7c-5.7,1.9-11.3,4.1-16.9,6.5-19.3,8.5-41.6,19.7-52.9,38.2-2,3.3-5.1,9.6-4.3,13.4,2.5,12.2,23.3,27.2,34.6,30.9.9.3,1.8.6,2.8.5.6-.6.8-7.8,1-9,2.5-13.1,4.9-18.4,12.5-28.9s2.2-3.4,2-3.6c-6.2,2.6-10.7,6.6-13.2,13s-1.7,6.9-2.1,7c-3.1.7-3.5-2.5-3.7-4.8-1-10.9,5-23.5,15-28.2-.4-1.1-2.1,0-3-1.2s-.6-1.9-.4-2.7c6.8-1.9,13.1-6,16.9-12s3.8-7,5.3-10.1,1.1-1.3.7-2.5ZM267.8,230.3c0-2.2,0-4.3,0-6.5-.5-.7-4.3,6.1-4.6,6.7-2.4,4.4-4,8.6-7.3,12.7s-5.8,4.9-8.6,7.4c1.1.6,2-.6,3.2-.8s2.6.2,3.8,0c-.2.4-.6,2.5-1,3.5-10.7,1.9-18.9,10.1-21.5,20.5,1.5-.7,2.1-2.7,3.2-3.8,1.8-1.8,5-3.1,6.3-4.7,4.2-1.9,8.3-4.5,13-4.8,5.9-3.8,11.7-7.6,18-10.8.6-1-1.2-2.5-1.6-3.5-2.6-5.4-2.7-10.1-2.8-15.9ZM410.2,247.3l2-2c-5.9-2.7-11.4-7.7-13.5-14.1l-4-5.9c-.8-.1-.5.7-.5,1.2-.3,5.6,1.2,11.1,4,15.2s2.3,6,5.2,8.8,11.1,9.6,11.8,9.9,2,.1,2.6.4c4.3,1.8,7.9,3.9,11.1,7.4.4-1-.2-2.9-.7-3.8-1.6-3.6-6.6-10.2-10-12.1s-5.7-1.7-7-2.8-.7-1.8-1-2.2ZM432.7,284.8c2.2,5.5,3.3,11.9,3,18.2s-1,4.9-1,7-.1.9.8.8c5.8-3.7,12.9-6.3,18.6-10.2,18.6-13,11.5-30.8-2.7-43.8-14.7-13.4-32.6-22.5-50.7-30.5s0-1.2-1.6-1,.7,1.3.7,1.3c3.8,5.7,5,9.6,11.3,13.6s8.9,4.2,9.1,4.6c1.2,2.1-1.3,3-1.4,3.1-.5,1.6.7,1.1,1.4,1.5,10,6.3,15.9,21.5,16,32.9,0,2.4-.5,2.3-2.4,2.2v-.7c-1.4-.6-1.1-1.8-1.6-3s-.8-.7-.9-.8c-2.4-5-2.5-8.1-7.4-12s-2.8-2.5-4.1-1.8c2.3,2.8,5.4,5.8,7.5,8.6s2.9,3.9,3.5,5.1,1.6,3.5,2,4.5ZM363.4,236.1c-.5-.5-.7-1.1-1.6-1.6-8-5-16.9,2.2-16.1,10.8,5.3-.3,2.5-2.1,3-4.2s1.2-.8,1.3-.8c.5,0,1.8,3.4,3.2,3,2.2-3-2.4-4-1.5-5.5s5.7-1.2,7-.8c4,1.4,3.9,6.6,8.5,4.7-.2-2.6-2.1-4.1-3.8-5.7ZM311.6,235.5c-5.3-2.6-11.8-.4-15.1,4.3s-2.2,4-1.8,4.5,5.2.6,5.4.4c.4-.3,1-6,2.1-3.2s0,1.4.8,1.8c1.7,1.1,3.3-.2,2.7-2.3s-1.6.3-1.8-1.2c-.5-3.5,8.9-3.5,10.4,2s.3,4.7-1.2,7.1c.3,1.7,4.2-.8,4.4-1.6.5-1.4-1.1-6.9-2-8.3s-3.7-3.5-4.2-3.7ZM401.2,262.3c-.4-1.3-1.8-3.5-2.7-4.3-9-8.3-24.2-9.6-36-8.7s-14.7,2.4-15.2,3c-.9,1.1.9,2.3,1,2.5.2.6.2,2.9.8,3,7-.5,13.4,1.2,19.3,4.5,6.2,3.5,11.9,9,17.9,12.6s10.4,6.3,16.1,2.7,2.2-5.1,1.8-7.7-.9-1.8-1-2.2c-.3-1.6.3-4.9-2-5,0-.1,0-.5,0-.5ZM290.8,251.8c-9.6,1.1-19.9,6-26.1,13.6-2.9,3.5-6.1,9.7-3,13.9s2.2,1.1,4.2,1.8,1.9,1.1,2.7,1.3c2,.4,4.9-.8,6.9-1.6s1.3-1.4,1.3-1.4c.3-.1,1.1.2,1.8-.1s8-7.8,9.6-9.1c3.9-3.2,11.6-9,16.4-10.1s3.8.2,4.4-.6.8-4.8.7-5c-.5-.7-12.1-3-13.7-3s-3.5.3-5.2.5ZM346.2,272.3c-2.3.3-2.2,1.5-3.8,2.9s-3.4.6-3.1,3.8c.6,5.6,3.5,8.7,8.2,11.3,13.9,7.7,36.7,8.3,51.2,2s5-3,7-4.3,1.3.1,1-1.2c-5.9.8-10.3,1.4-16.1-.7-12.7-4.6-24.4-19.8-37.6-20.3-3.5-.1-5.9,3.4-6.7,6.5ZM313.8,273.3l-3.6-5.4c-1.7-1-6,.9-7.7,1.8-12,6-17.2,19-31.9,21s-9.1-2.5-14.7-2c1.1.8,2.4,2.8,3.4,3.5,2.2,1.4,8,3.7,10.6,4.5,12.4,3.9,25.7,2.4,38.1-.6s21.1-6.5,21.3-17.1c-.3-1.3-5.8-1.1-7.1-1.4s-4.5-2.1-5.7-2.7-.6-1.4-2.6-1.6ZM411.7,269.8v7.5c1.1-.2,4.8-1.1,5-2.3s-3.4-5.6-5-5.2ZM252.8,272.3c-.4-.5-2.3,1.7-2.5,1.9-2.3,3.1-2.3,4.2,2,4.1l.5-6ZM394.7,359.2c5.1-3.3,9.9-8.3,14-12.9,11-12.3,19.8-31.5,19-48.3-.3-5.8-2.7-11-5-16.2-.8-.2-1,.3-1.5.7-3.1,2.9-5.7,7.8-9.2,10.8-10.6,8.9-28,11.3-41.5,11s-4.3-1-5.9-.5-1.5,2.4-2.1,3c-11.7,13.2-30.2,16.6-46.2,9.2s-9-6.6-11.9-11.2c-4.7.4-9.2,1.7-13.9,2-16.7,1-31.6-3-43.7-14.5s-2-2.9-2.6-3.7-.5-1-1.4-.8c-.8,2.7-1,5.5-1.6,8.2-6.2,30.2-.5,49.6,23.9,69.2.9.8,8.1,6.2,8.7,5.6-.7-3.6-2.5-7.2-2.9-10.9s-.5-5.4-.6-7.4.1-4.9,0-7.3c4.8-.6,4.5,3.2,5.9,6.3,6.6,14.6,17.5,22.2,31.4,29,9.1,4.5,18.8,7.7,27,14,1.1.5,1.7-1.2,2.6-1.9,12.2-9.2,33.2-19.1,41.4-31.3s8.4-17.3,10-27.4c.4-2.7,1.2-6.5,1.5-9,.4-3.4,0-3.8,1.1-7.2,1.8-.3,1.2,0,1.6,1.1,2,4.4,4.2,9.8,3.8,14.6s-2.1,12.9-4.2,18.3-4.7,9.2-6.8,13.9c.7.7,6-3.9,6.8-4.5,1.2-.9,1.5-.1,2.2-2ZM335.6,289.9c-2.1-2.2-2.9.9-3.9,2s-2.4,2.1-3.4,3.4l-9.6,6c5,1.8,9.4,3,14.8,2.5s11.1-2.6,12.2-4.3.9-.6.3-1.3-4.5-2.4-5.7-3.3-2.8-2.3-3.7-3.2-.6-1.5-.9-1.8ZM350.4,307c1.1-.7,7.8-2.8,4.8-5s-4-1.2-4.3-1.2-2.7,1.2-3.3,1.5c-10,4.4-19.3,6.7-30,1.3s-2.3-3.1-5.4-.6c-.4,1.9,5.1,5.2,6.5,5.9,11.4,5.5,21.1,4.3,31.6-2ZM232.8,332.3c-.2-1.4-.9-.9-1-1.3-.2-.9.1-2.2,0-3.2-4.5,1.7-13.6,6.2-10.1,12.3s12.5,5.5,16.1,6.6c.4-.9-.3-1.5-.5-2-1.5-4.7-3.8-7.5-4.5-12.5ZM385.5,366.2v.5c.3-.2.3-.3,0-.5ZM146.4,396.2c-.8-.7-.8.1-1,.7-.9,2.4-2,9.7-.9,11.9l9,7.9c0-2.7-.9-5.4-1.8-8s-2.4-5.8-3.7-8.4-1.1-3.7-1.5-4.1ZM131.9,463.7c14.3-1.4,16.4-20.1,16-31.8s-3.9-14.4-10.5-16.4-25.9-2.6-34.1-.1-4.1,1.4-4.4,2.1c7.2,5.1,13.7,11.2,18.2,18.8s6.9,12.8,7.3,15.2-1.2,5.5-4.3,5.7c-5.1.3-5.7-5.8-7.3-9.1-4.5-9.3-7.2-13.3-14.9-19.9-.8-.7-1.7-1.3-2.6-2-1.7-1.4-3.8-5.5-6.2-3.5s-4.4,13-4.7,15.8c-.6,6.4-.5,10.5,3.7,15.7,6.2,7.7,16.3,9.6,25.7,9.5.5.6,1.4.9,2.2,1,3.3.4,11.4.3,14.8,0s1.1.4,1-1ZM149.4,506.6c2.8-10.4,5.4-20.9,7.1-31.6s1.2-7.3,1.4-11.1c.3-7.4-.6-14.8-.5-22.3-.7,0-.9,2.2-.9,2.8-1,8.7-2.7,14-8.1,20.9s-4,2.9-4.4,6.1c-1.1,7.6,2,16.7,2.6,24.3l2.9,10.9Z"/>
              <path class="st2" d="M372.7,382.2c5.3-2.1,10.3-5,15.6-7.5s.4-.9.7-1c1.3-.2,2,.8,2.9,1,1.8.3,3.3-.4,5,.5,3.2,1.8,1,6.5,1.7,9.2s3.6,3.4,4.2,3.9.3.9.3.9c-.2,1.1-1.9,2.8-3,3-.1,0-1.5-.2-2.4-.9s-3.3-3.3-4-3.5c-2.3-.7-3.2,1.5-4.9,1.5s-1.4-.7-2.1-.9-1.1.3-1.6,0c-2.7-1.3-1.6-9.4-9.1-4.7-5.5,3.5-6.7,12.9,1.1,11.2s3.5-2.4,5.5,0-.6,6.3.5,7.9,2.3.7,3.3,1.3,1.9,1.8,2.2,2l-3,4.5c-1.6-.6-3.2-2.6-4.9-2.9s-2.7,3.3-7,1.6c-.5-.2-.5-.8-1-1.1s-1.5-.2-2-.6-.5-2-1.3-2.9c-6.3-7-16.5,16.1-2.7,11.5.7-.2.4-2,3.2,0s2.2,5.6,3.2,7,2.8.3,3.3.7,0,.9,0,.9c-2.2.4-2.6,4.3-3,6-.8-.4-3.1-1.5-3.7-1.5-1.8,0-2,1.7-3.5,2s-4-.1-4.8-.5c-1.2-.6-1.2-4.1-4.6-4.5s-3.8.6-5.1,2.9c-2.6,4.7-3.1,12.9,4.4,10.9s2.7-3,6.3-.9,1.6,4.8,3.6,5.6l-.5,1.5c-4.4-1.9-18.5-5.9-23-5.5-.5-13.8,2.2-26.7,10.1-38.1s16.9-19.1,19.9-20.3Z"/>
              <path class="st2" d="M432.7,364.7c-.6-1.1-3.7-6.2-4.2-6.5-2.3-1.3-5.5.9-7.8-3.2-1.2-2,0-4.6-.5-6.5s-1.8-.4-1.4-2c6.2-6.3,9.3-15,12.6-23.2,7.7,1.2,15.2,2.5,21.5,7.4s5.2,4.4,4.9,8.2-6.2,5.6-3.5,10.8l-2.5,1c-.2-.4-4.2-5.5-4.5-5.7-1.6-1.2-4.7-.4-5.5-1.6-1.7-2.6,2.8-10.5-4.2-11.2s-9.5,3-10.1,5.9c-1.9,8.2,6.4,3.8,8.1,7.6s-1.9,4.8-1.2,8.7,3.1,3.8,3.5,6.3c-1.9,1-2.9,3.6-5,4Z"/>
              <path class="st0" d="M400.2,392.2c0,0,0,.7.3,1,3.3,2.7,5,4.5,2.2,8.8s-6.4,7-6.8,7.1c-2.6.8-3.8-1.4-5.7-2.6s-1.3-.2-1.4-.3c-.4-.2-1.2-1.4-2.2-2s-2.8-.6-3.3-1.3c-1.1-1.6,1.2-5.9-.5-7.9s-3.5-.4-5.5,0c-7.8,1.7-6.6-7.7-1.1-11.2,7.5-4.7,6.4,3.4,9.1,4.7s1.2-.2,1.6,0c.7.2,1.1.9,2.1.9,1.7,0,2.6-2.2,4.9-1.5s3,2.8,4,3.5,2.3.8,2.4.9Z"/>
              <path class="st0" d="M437.7,360.7c-.3-2.4-3.1-3.9-3.5-6.3-.6-3.9,2.7-5.4,1.2-8.7s-10,.5-8.1-7.6,7.6-6.1,10.1-5.9c7,.6,2.5,8.6,4.2,11.2s3.9.4,5.5,1.6,4.3,5.4,4.5,5.7c.3.6,1.9,5.7,2,6.3.2,3-3.1,3-4.9,4s-6.2,4.9-8.4,3.6-1.2-4.2-2.6-3.9Z"/>
              <path class="st0" d="M376.7,424.7s.1-.7,0-.9c-.5-.4-2.8,0-3.3-.7-1-1.4.2-4.7-3.2-7s-2.5-.2-3.2,0c-13.8,4.6-3.6-18.5,2.7-11.5s.9,2.5,1.3,2.9,1.5.3,2,.6.5.9,1,1.1c4.3,1.7,5-1.9,7-1.6s3.3,2.3,4.9,2.9c4.1,3.6,9.2,2.9,5.6,9.4s-.9.7-1.1,1c-.8,1.4-3,6.4-4.3,6.6-2,.4-7.3-1.9-9.3-3Z"/>
              <path class="st0" d="M366.2,444.7c-2-.9-1.5-4.4-3.6-5.6-3.6-2.1-3.9.2-6.3.9-7.5,2.1-7-6.2-4.4-10.9,1.3-2.3,2.2-3.2,5.1-2.9s3.4,3.9,4.6,4.5,3.9.7,4.8.5c1.5-.3,1.7-2.1,3.5-2s2.9,1.2,3.7,1.5c2,.9,4.4,2.7,6.5,3.7s4.8,0,2.6,4.2-.9.6-1.1,1c-1.4,3.1-1.2,8.5-5.2,8.1-1.4-.1-8.8-2.3-10.3-3Z"/>
              <path class="st2" d="M417.2,378.7c-.2-.2-2.2-1.4-2.8-2-1-1-1.5-2.5-1.9-2.8-.8-.9-4.4-3.6-5.6-3.6s-3.4,1.3-4.8-.3.6-1.7.6-3-1.5-2.3-1-3.2,2.5-1.5,3.2-2.1c1-.8,3.3-3.6,4.1-3.9,1.6-.5,1.1,1.1,2,1.4,1.6.5,5.7-2,5.2,2.7s-2.2,2.9-1.4,5.4,3,3.2,3.8,4.2,1.3,2.9,1.6,3.2c-.1,1.9-3,1.9-3,4Z"/>
              <path class="st1" d="M246.8,292.3c12.1,11.5,27,15.5,43.7,14.5,4.7-.3,9.2-1.6,13.9-2,2.9,4.6,6.8,8.8,11.9,11.2,16,7.5,34.5,4,46.2-9.2.6-.7,1.8-2.9,2.1-3,1.6-.4,4.1.5,5.9.5,13.5.3,30.9-2.1,41.5-11,3.5-3,6.1-7.9,9.2-10.8s.7-.9,1.5-.7c2.3,5.2,4.8,10.4,5,16.2.8,16.8-8.1,36.1-19,48.3-4.1,4.6-8.9,9.6-14,12.9,5.5-14.8,7.7-27.2,3.6-42.8s-2.4-3.4-5.4-2.5-1.3,2.9-1.6,3.8c-1.1,3.4-.6,3.8-1.1,7.2-.3,2.5-1,6.3-1.5,9-1.7,10.1-4.3,18.8-10,27.4-8.2,12.2-29.2,22.1-41.4,31.3l-2-1.2-6-6.3c7.3.5,5.9-5.3,8.5-10.3s6.1-6.3,8-10.2l1,6.3c.9,1.5,3.6,1.6,5,1s5.9-5.9,6.8-6.9c10.3-11.5,15.7-25.3,14.7-41s-.9-6.2-2.7-7-1.9-.4-2.8-.7-.2-.8-1.2-1c-2.8-.5-3.9.9-4.5,3.5-.8,3.7.2,8.1-.5,12s-3.3,13-5.1,16.4,0,1.3-1.7,1c0-.6-.1-3.4,0-3.5.2-.3.8.9,1-1,.5-4.4,3.8-18.8-3.3-19s-3.3,1.2-3.6,1.6c-.8,1.4.1,9-.2,11.6-1.2,10.3-6.6,20.9-13.9,27.8-1.8-2.7-2.3-6.1-3.6-9.1-2.6-6.1-7.8-14-8.4-20.6s.9-9.4,0-10.9-1.9-1.4-2.7-1.3c-1.9.3-2.6,2.6-3,2.8-.7.4-1.8,0-2.6,0s-.3,1-.3,1c-.8.6-2.1.4-2.5,2.3-1,5.6,1,12.8,3,18,2,5.3,5.1,10.3,7,15.7-3.5-1.5-10.8-12.4-12.7-16-4.3-8.5-5.6-18.7-7.6-27.9-.7-1.5-2.9-1.9-4.4-1.5s-.3,1-.3,1c-.2.2-1.3,0-1.9.6s-1.5,2.8-1.6,3.1c-2.4,13,4.3,31.3,12.6,41.4s12.5,12.2,15.4,13.1,3.3.3,5-.5c1.9,2.6,0,5.7,2.5,8.3-2.1-.4-9.2-5.5-11.9-6.9-6.2-3.1-13.2-4.7-19.2-8.1s-15.6-12.8-18.5-19.5c-.6-1.3-1.7-6.7-2.1-7-.7-.5-4.9-1.6-5.9-1.5-4.2.3-3.9,15.4-3.7,18.5-.7.1-.9,0-1.5-.4-9.3-6-18.4-25.9-21-36.4s-2.1-19.4,0-28.8.7-3.2,1.9-2.9ZM415.5,329.1c2.8-5.7,5.6-11.9,7.1-18.1s2.4-12.9,1.5-17.4-2.5-3-4-2-1.2,11.8-1.6,14.4c-2.3,13.2-10.8,24.3-16.3,36.2-.4,3.2,1.7,4.6,4.4,2.8,2.5-3.9,4.4-8.2,6.6-12.3s1.8-2.7,2.2-3.6ZM249.7,302.4c-1.1-1.1-3.6-.8-4.4.6-1.8,2.9,1.3,9,.6,12.5,2.1,9.3,4.5,20.1,8.9,28.6s2.8,6.9,5.7,6.1,1.6-3.2,1.3-4.6c-.6-2.6-4.3-8.6-5.6-11.9-2.1-5.7-5.2-15.8-5.8-21.7s.5-8.4-.7-9.6Z"/>
              <path class="st1" d="M297.3,170.9c2-5,10.4-15.2,14-19.7,8.8-11.2,14.7-17.1,27.5-23.9,16.8-8.9,56.1-21.4,69.7-3.1,6.7,9,4.5,20.8,10.5,30.7,5.2,8.7,13.9,11.7,23.7,11.5-1.7,3.3-4.3,5.6-7.7,7-12.3,5-22.6-2.8-24.7-15l7.5,6.7c2.7,1.6,5.5,3.3,8.7,3.3s3.9-.1,3.2-2.7-4.1-1.6-5.5-2.1c-20.7-8.2-10.9-34.1-28.5-42.4-.9-.4-2.2-1.1-3.2-1.3-1.4-.2-10-.3-10.5.4-1.7,2.6,1.6,3.3,3.6,3.5,4.1.4,6-.7,10,1.7s4,3.8,4.6,4.6c2.6,4.2,4.2,10.8,4.6,15.7-2.2-1.7-5.6-4-8.5-3.5.6-2.8-4.4-1.7-5.6-1.3-5.9,1.7-8.3,8.6-10.1,13.8-1.8-1.9-3.1-4.2-5-6s-9.8-7.4-13.4-6.4-1.2,1.2-1.8,1.4c-1,.3-3.9-.6-2.7,2s5.7,5,7.7,6.8c5,4.5,15.1,13.6,17.3,19.7s.4,1.6.3,2.5c-5.8-1.6-11-4.8-16.9-6.4-21.7-5.8-44.7-5.7-65.8,1.9-.9.3-1.8.6-2.8.5Z"/>
              <path class="st1" d="M320.8,242.3c-3.3-12.8-20.8-15.1-27.2-3.4s-1.8,3.7-1.8,5.4c-5-.4-9.6,1.8-14.5,2.5.5-1.9-.7-2.7-1.3-4-.9-2.2-1.6-4.1-1.8-6.7-.5-7.1-.2-14.5,3.4-20.8,5.6-1.5,11.3-3.3,17-4.4,17.1-3.2,34.5-3.7,51.7-1s8.4,1.4,7.9,2.4l-4.8,3.2c-1.8,1.4-7.6,10.7-5.1,12.3s3.1-.8,3.3-.9c11.2-3.1,19.7-3.2,29.2,4s.5,1.5,2.1,1.6c5.1,0,0-11.3-1.7-13.5l-.5-1.5c.7-.1,1.3.4,2,.5,2.4.4,4.5,1,6.8,2,0,1.7,1.5,3.1,1.7,4.3.6,3.3-.4,8,0,11.4l3,8.3c-6.2-1-12.3-2.1-18.7-2.1l-4.5-7.7c-7.2-7-20.7-4.9-23.8,5-.7,2.3-.2,9.4-.5,9.7s-3.5-.4-4,1.8,1.9,2.6,2.5,4.4.4,2.1.5,3.3,0,2.8,0,4,0,.3,0,.5c-4.2,1.4-7,4.6-11.9,4.9s-9.2-2.1-9.6-2.4-.1-3.8,0-4.6c.7-3.5,4-5.4,4.4-10.1s.2-9.2-4-8.3ZM318.3,229.8c-1.2-2.6-.3-4.9-1.2-7.5-3.3-8.8-16.1-11.5-24.2-8.2s-13.7,9.7-14,13.4,6.5-.2,8.8-.6c6.7-1.3,16-.4,22.5,1.2s5.3,2.9,8.1,1.7Z"/>
              <path class="st1" d="M433.7,284.8c1.9,0,2.4.1,2.4-2.2,0-11.4-6-26.7-16-32.9s-1.9,0-1.4-1.5,2.6-1,1.4-3.1-7.7-3.7-9.1-4.6c-6.2-4-7.5-7.9-11.3-13.6s-2.3-1.1-.7-1.3,1,.7,1.6,1c18,8,36,17.2,50.7,30.5,14.2,12.9,21.3,30.8,2.7,43.8s-12.8,6.4-18.6,10.2c-.9.1-.8,0-.8-.8,0-2.1.9-4.8,1-7,.3-6.3-.8-12.7-3-18.2.3,0,.7,0,1,0Z"/>
              <path class="st1" d="M261.8,225.3c.3,1.2-.3,1.7-.7,2.5-1.5,3.1-3.5,7.2-5.3,10.1-3.8,6-10,10.1-16.9,12-.2.9-.2,2,.4,2.7.9,1.2,2.7,0,3,1.2-10,4.8-16,17.3-15,28.2s.5,5.5,3.7,4.8,1.6-5.7,2.1-7c2.5-6.4,7-10.4,13.2-13,.2.2-1.7,3.2-2,3.6-7.6,10.4-10,15.8-12.5,28.9-1.6-.1-4.2-.9-5.6-1.5-2.3-1-5.1-4-7.4-5.7-7-5-19.5-12.9-16.8-23.4s5.1-7.2,6.4-8.6c13.8-15.4,30.5-24.3,48.9-33.1s3.6-1.1,4.6-1.6Z"/>
              <path class="st1" d="M372.7,382.2c-3,1.2-17.5,16.9-19.9,20.3-7.9,11.4-10.6,24.4-10.1,38.1-.3,0-.9,0-1,0-1.3,0-2.3-.5-2,1-5.2.2-9.6.5-14.6,2.1s-9.9,5.5-15.9,6.9l-.5-4.5c0,0,.7-.7,1.4-.9,1.7-.4,10.2-2.4,10.8-3.1s-.2-2.2,1-3.6,4.5-2.2,5.2-1.8,1.6,2.3,2,2.4c.7.2,4,.1,4.6-.2,3-1.8,2.4-14.3-5.7-12.7s-1.2,5-6.4,4.8c-3.1-.1-4.9-2.4-7.5-2.3s-5.9,2.2-8.2,3.4-2.2.4-2.6.6c-.3-1.9-2-2.9-1.5-5,.2,0,2.1-1.8,3-2.2,1.9-.8,6.9-1.7,8.3-3.4s.7-3,1.4-4.3c3.8-6.7,11,1.5,11.7-5.8.3-3.5-.9-8.7-4.8-9.6s-4.8,6.2-5.7,6.8-4.5.2-5.2,0c-1.3-.3-3.3-2.6-5-2.5-2.8.2-8.9,6.7-12.3,7-.4-1.9-3-4.3-3-6.5,2,.3,3.1-1.3,4.7-2.1s7.4-3,7.6-3.4c1-1.4-1.1-4.9,2.2-7.3s6.8-2.4,8.2-2.3c3.6,0,12.3,5.8,15.5,8s5.3,3.6,6.5,5,1.3,4.8,3.9,3.9,1.6-10.1,4.7-11.3c9.3-5.3,18.1-13.1,27.2-18.3s1.3-.5,1.9-.8v3.5Z"/>
              <path class="st1" d="M227.3,226.3c22.4-14.7,46.4-26.6,73.1-31,8.7-1.4,18.2-2.5,27-3,28.9-1.3,52.3,9.4,77.8,20.7,6.2,2.8,11.5,6.3,17.3,9.7,15.8,9.3,40.2,23.7,47.3,41.6.5,1.3,1.7,4.3.8,5.5h-.5c-9.1-20.6-35.8-36.2-55.4-45.8-44.1-21.8-88.3-30.2-136.6-17-16.3,4.4-31.5,11.7-46.9,18.3s-1.3-.6-1,1c-.6.2-1.8.4-2,.5l-1-.5Z"/>
              <path class="st2" d="M297.3,170.9c0,.2.2.8,0,.9s-3.2.4-4.1.7c-1.4.4-2.9,1.9-4.4,1.1,3.7-4.7,6.6-9.9,10-14.9,12.3-18,23.2-29.7,42.8-40.3,21.3-11.5,54-14.7,70.8,5.9,6,7.3,5,11.8,8,19.9s10,14.3,18.2,16.3c5,1.2,7.5-1.1,4,5.7-9.8.2-18.4-2.9-23.7-11.5-6-9.9-3.8-21.7-10.5-30.7-13.6-18.3-52.9-5.8-69.7,3.1-12.8,6.8-18.8,12.7-27.5,23.9-3.6,4.6-12,14.8-14,19.7Z"/>
              <path class="st1" d="M274.8,187.9c13.3-4.9,26.7-11.6,40.8-13.9,28.6-4.8,52.6.9,77,15.4.7.4,1.9.4,2.2.9l1.7,11.2c-7-2.5-13.2-6.2-20.2-8.7s-15-5-21.5-6.3c.5-1.6-2.2-5.1-3.4-5.5-5.4-1.9-18.3-1.7-24.4-1.6-9,.3-22.3,1-30.8,3.2s-11.9,4.5-17.3,5.6-3.1.7-4-.3Z"/>
              <path class="st2" d="M261.8,225.3c-1,.5-3.4,1.1-4.6,1.6-18.4,8.8-35.1,17.7-48.9,33.1s-6,7.2-6.4,8.6c-2.6,10.5,9.8,18.4,16.8,23.4s5.1,4.6,7.4,5.7,4,1.4,5.6,1.5c-.2,1.2-.4,8.4-1,9-1,.1-1.9-.2-2.8-.5-11.2-3.7-32.1-18.7-34.6-30.9s2.3-10,4.3-13.4c11.3-18.5,33.6-29.7,52.9-38.2s11.1-4.6,16.9-6.5c.3.4-.5,1.4-.8,1.7-.9.9-4.3,4.4-5,4.8Z"/>
              <path class="st2" d="M246.8,292.3c-1.2-.4-1.7,2.3-1.9,2.9-2.2,9.4-2.4,19.4,0,28.8s11.7,30.5,21,36.4.7.5,1.5.4c-.2-3.1-.4-18.2,3.7-18.5s5.2,1,5.9,1.5,1.6,5.7,2.1,7c2.9,6.7,12.3,16.1,18.5,19.5s13,5.1,19.2,8.1,9.8,6.5,11.9,6.9.3,0,.5,0l6,6.3,2,1.2c-.9.7-1.5,2.4-2.6,1.9-8.1-6.3-17.9-9.6-27-14-13.9-6.8-24.8-14.4-31.4-29-1.4-3.1-1.1-6.9-5.9-6.3.1,2.4-.1,4.9,0,7.3s.4,5.3.6,7.4c.4,3.6,2.1,7.3,2.9,10.9-.6.6-7.7-4.8-8.7-5.6-24.3-19.5-30.1-38.9-23.9-69.2s.7-5.5,1.6-8.2c.9-.2,1,.3,1.4.8s1.9,3.1,2.6,3.7Z"/>
              <path class="st1" d="M346.2,272.3c2-.3,3.2-.8,4.7-1,8.5-1.2,12.3,5.2,18.4,9.7s9.6,6.5,15.6,8.3,9.3,1.4,13.7,3c-14.5,6.3-37.3,5.7-51.2-2s-7.6-5.7-8.2-11.3,1-2,3.1-3.8,1.5-2.6,3.8-2.9Z"/>
              <path class="st1" d="M313.8,273.3c2,.2,1.7,1.1,2.6,1.6s4.7,2.5,5.7,2.7,6.7,0,7.1,1.4c-.2,10.6-12.6,15-21.3,17.1-12.4,3-25.7,4.5-38.1.6,2.9-1,6.2-1.2,9.1-2.1,6.4-2,11.3-7,16.3-10.8s12-11.2,18.6-10.5Z"/>
              <path class="st1" d="M348.2,254.8c1.3-.6,2.8-.9,4.2-1,10.7-.7,40.1-1.1,47.6,7.2s0,.9.3,1.2.8.1.9.2,0,.4,0,.5c0,.5-.8.9-.9,1.4-.5,2.1.8,3.7,2.9,3.6.1.5.9,1,1,2.2.3,2.6.5,6.2-1.8,7.7-5.8,3.6-11,.4-16.1-2.7s-11.7-9.1-17.9-12.6c-5.9-3.3-12.3-5-19.3-4.5-.6-.2-.6-2.4-.8-3Z"/>
              <path class="st1" d="M290.8,251.8c1.8-.2,3.4-.6,5.2-.5s13.2,2.4,13.7,3-.5,4.7-.7,5c-.6.8-3.1.3-4.4.6-4.7,1.1-12.5,6.9-16.4,10.1s-8.9,8.8-9.6,9.1-1.5,0-1.8.1c-1.6-2.9-6-2.5-7.5-5.2-2.6-4.5,3.8-10.4,6-14.1l15.5-8.2Z"/>
              <path class="st2" d="M274.8,187.9c.9,1,2.9.5,4,.3,5.5-1.1,11.8-4.2,17.3-5.6,8.5-2.2,21.8-2.9,30.8-3.2s18.9-.3,24.4,1.6,3.8,3.9,3.4,5.5c-19.7-3.8-43.3-.8-63.1,2.1l-21.1,6.4c-.6-.2-.2-1,0-1.5,1.3-2.9,1.2-4.4,4.2-5.5Z"/>
              <path class="st2" d="M269.8,296.8c-2.6-.8-8.4-3.1-10.6-4.5s-2.3-2.6-3.4-3.5c5.6-.5,8.9,2.7,14.7,2,14.7-2,19.9-15,31.9-21s6.1-2.8,7.7-1.8l3.6,5.4c-6.6-.7-13.6,6.7-18.6,10.5s-9.9,8.8-16.3,10.8-6.2,1.1-9.1,2.1Z"/>
              <path class="st2" d="M346.2,272.3c.8-3.1,3.2-6.6,6.7-6.5,13.3.5,24.9,15.7,37.6,20.3s10.2,1.5,16.1.7c.3,1.4-.4.9-1,1.2-2,1.3-4.9,3.4-7,4.3-4.5-1.6-9.2-1.6-13.7-3s-10.6-4.6-15.6-8.3-9.8-10.9-18.4-9.7-2.7.8-4.7,1Z"/>
              <path class="st2" d="M360.2,143.9c.7-.2,1.1-1.2,1.8-1.4,3.6-1,10.8,3.8,13.4,6.4s3.2,4.1,5,6c1.8-5.2,4.3-12.1,10.1-13.8s6.2-1.4,5.6,1.3c-2.9.5-7.1,7.6-8.5,10.2-2.1,4-3.8,8.2-4.5,12.7-1.8-.5-2.2-2.6-3.5-4.1-4.3-5-12.7-12.2-18.2-15.9s-1.5-.4-1.2-1.5Z"/>
              <path class="st1" d="M267.8,230.3c0,5.9.2,10.5,2.8,15.9s2.2,2.5,1.6,3.5c-6.2,3.2-12.1,7-18,10.8-4.7.3-8.8,2.9-13,4.8,1.7-2,3.1-4.1,5.3-5.9,3.2-2.5,5-1.8,6.7-6.1s.8-3.1,1-3.5,1.5-.7,2-1.2c4-4.2,7-8.6,9.4-13.6s1.1-3.3,2-4.6Z"/>
              <path class="st2" d="M391.2,317.8c.3-.9.6-3.5,1.6-3.8,3-.9,4.7-.4,5.4,2.5,4.1,15.6,1.9,28-3.6,42.8-.7,1.9-1,1.1-2.2,2s-6,5.2-6.8,4.5c2.2-4.7,5-9.1,6.8-13.9s3.7-12.5,4.2-18.3-1.9-10.2-3.8-14.6.2-1.4-1.6-1.1Z"/>
              <path class="st2" d="M290.8,251.8l-15.5,8.2c-2.2,3.7-8.6,9.5-6,14.1s5.9,2.4,7.5,5.2c0,0-.5,1-1.3,1.4-1.9.8-4.8,2-6.9,1.6s-1.7-.9-2.7-1.3c-2-.6-2.6.4-4.2-1.8-3.1-4.2.2-10.4,3-13.9,6.2-7.5,16.5-12.5,26.1-13.6Z"/>
              <path class="st1" d="M350.4,307c-10.5,6.3-20.2,7.5-31.6,2s-7-4.1-6.5-5.9c3-2.5,3.4-.4,5.4.6,10.7,5.4,20.1,3.1,30-1.3s3.1-1.5,3.3-1.5,4.1,1.1,4.3,1.2c2.9,2.1-3.7,4.3-4.8,5Z"/>
              <path class="st1" d="M398.2,241.8l.6-.5c2.1,1.9,5,3.9,7.7,5s3.4.5,3.8,1,0,1.4,1,2.2,5,1.7,7,2.8c3.4,1.9,8.4,8.5,10,12.1s1.1,2.8.7,3.8c-3.3-3.4-6.8-5.5-11.1-7.4s-1.7,0-2.6-.4-10.9-9-11.8-9.9c-2.9-2.9-3.5-6.3-5.2-8.8Z"/>
              <path class="st1" d="M335.6,289.9c.4.4.4,1.3.9,1.8.9,1,2.7,2.5,3.7,3.2s5.1,2.6,5.7,3.3,0,.8-.3,1.3c-1.1,1.6-9.9,4.1-12.2,4.3-5.4.4-9.8-.7-14.8-2.5l9.6-6c.9-1.3,2.3-2.2,3.4-3.4s1.8-4.1,3.9-2Z"/>
              <path class="st2" d="M348.2,254.8c0-.1-1.9-1.4-1-2.5s13.4-2.9,15.2-3c11.9-.9,27,.3,36,8.7.9.8,2.3,3.1,2.7,4.3,0,0-.6.1-.9-.2s0-.9-.3-1.2c-7.5-8.2-36.9-7.9-47.6-7.2s-2.9.4-4.2,1Z"/>
              <path class="st2" d="M320.8,242.3c4.2-1,4.3,5.3,4,8.3-.4,4.6-3.7,6.5-4.4,10.1s-.3,4.3,0,4.6,8.7,2.5,9.6,2.4c4.8-.3,7.7-3.5,11.9-4.9-.2,2.3-.1,2.7-1.8,4.4-4.4,4.7-13.3,4.6-18.6,1.8s-6.6-5.8-4.9-10.8,5.1-4.8,5.3-6.2c-.7-3.2-.2-6.6-1-9.7Z"/>
              <path class="st1" d="M279.3,390.2c.4-1.9,3.5-3.2,4.7-4.5s.5-1.2.8-1.6c1.2-1.4,3.2-2.5,3-4.9,4.8,1.5,9,5.3,13.9,7.1,1.2,2.7-2.5,2.3-4.5,1.7s-.9-1.2-1.3-1.3c-2.7-.6-2.5,1.3-3.7,2.2-1.8,1.4-3.6,2.8-5.4,4.2s-3,1.5-3.6,2l-2.7-2.1c-.3-1.4-1.7-1.4-1.3-2.9Z"/>
              <path class="st2" d="M373.4,220.6c1.6,1.6,3.2,3.2,2.8,5.7-8.2-6.1-18.7-6.2-28-2.5,0-1,.2-2,.7-2.8.6-1.2,5.8-6,7.1-6.1,6.6-.9,12.7,1.1,17.4,5.7Z"/>
              <path class="st1" d="M311.6,235.5c.4.2,3.9,3.2,4.2,3.7.9,1.4,2.4,6.9,2,8.3s-4.1,3.3-4.4,1.6c1.5-2.4,1.9-4.3,1.2-7.1-1.5-5.5-10.9-5.5-10.4-2s1.6.6,1.8,1.2c.6,2-1,3.4-2.7,2.3s-.5-1.2-.8-1.8c-1.1-2.8-1.7,2.9-2.1,3.2s-5.3-.2-5.4-.4c-.5-.5,1.3-3.8,1.8-4.5,3.2-4.7,9.7-6.9,15.1-4.3Z"/>
              <path class="st2" d="M267.8,230.3c-1,1.3-1.4,3.3-2,4.6-2.5,5-5.4,9.5-9.4,13.6s-2,1.1-2,1.2c-1.2.1-2.6-.2-3.8,0s-2.1,1.4-3.2.8c2.8-2.5,6.3-4.4,8.6-7.4s4.8-8.3,7.3-12.7,4.1-7.3,4.6-6.7c0,2.2,0,4.3,0,6.5Z"/>
              <path class="st2" d="M398.2,241.8c-2.8-4.1-4.3-9.6-4-15.2s-.3-1.4.5-1.2l4,5.9c2.2,6.4,7.6,11.4,13.5,14.1l-2,2c-.4-.5-2.8-.6-3.8-1-2.6-1.1-5.6-3.1-7.7-5l-.6.5Z"/>
              <path class="st1" d="M363.4,236.1c1.8,1.6,3.6,3.1,3.8,5.7-4.6,1.9-4.5-3.3-8.5-4.7s-6.5,0-7,.8c-.9,1.5,3.7,2.5,1.5,5.5-1.5.4-2.7-2.9-3.2-3s-1.2.5-1.3.8c-.5,2.1,2.3,3.8-3,4.2-.9-8.7,8.1-15.8,16.1-10.8s1,1.2,1.6,1.6Z"/>
              <path class="st2" d="M237.3,344.7c.2.5.9,1.1.5,2-3.6-1.2-14.3-3.4-16.1-6.6-3.5-6.2,5.6-10.6,10.1-12.3.1,1-.2,2.2,0,3.2s.8,0,1,1.3c-3.5-1.3-10.9,6-5.2,7.9l9.7,4.6Z"/>
              <path class="st2" d="M253.3,253.3c-1.7,4.2-3.5,3.5-6.7,6.1s-3.6,3.9-5.3,5.9-4.5,2.9-6.3,4.7-1.7,3.1-3.2,3.8c2.6-10.4,10.8-18.6,21.5-20.5Z"/>
              <path class="st1" d="M232.8,332.3c.7,5,3,7.8,4.5,12.5l-9.7-4.6c-5.7-1.9,1.7-9.2,5.2-7.9Z"/>
              <path class="st1" d="M430.7,280.3c-.7-1.2-2.6-3.8-3.5-5.1-2.1-2.9-5.2-5.8-7.5-8.6,1.3-.7,3,.9,4.1,1.8,4.9,3.8,5,7,7.4,12h-.5Z"/>
              <path class="st1" d="M411.7,269.8c1.5-.4,5.1,4.5,5,5.2-.2,1.2-3.8,2.1-5,2.3v-7.5Z"/>
              <path class="st2" d="M252.8,272.3l-.5,6c-4.3,0-4.2-1-2-4.1s2.1-2.4,2.5-1.9Z"/>
              <path class="st2" d="M403.2,267.8c-2.1,0-3.4-1.6-2.9-3.6s.8-.9.9-1.4c2.3.1,1.6,3.4,2,5Z"/>
              <path class="st2" d="M227.3,226.3l1,.5c-2.3,1.2-3.1,3.1-7,4-.3.8.4.8-1.3,1.5,0-1.7.3-1.3,1.3-1.5.6-1.8,4.2-3.3,6-4.5Z"/>
              <path class="st2" d="M431.2,280.3c0,0,.7.3.9.8.5,1.2.2,2.4,1.6,3v.7c-.3,0-.6,0-1,0-.4-1-1.5-3.6-2-4.5h.5Z"/>
              <path class="st2" d="M377.2,218.8c0,0-.6.2-.9-.1-.6-.6-1-1.7-1.6-2.4.9.3,4.3-.2,4,1.5-.7-.1-1.3-.6-2-.5l.5,1.5Z"/>
              <path class="st2" d="M341.7,258.3c.3,0,.9,0,1,0,.1.2.5,4.8-1,4,0-1.2,0-2.8,0-4Z"/>
              <path class="st2" d="M470.6,269.8c1.3.7,1.3,2.2.7,3.5-.6,0-1-3-1.2-3.5h.5Z"/>
              <path class="st2" d="M231.3,225.3c.3,1.5-.5.8-1,1-.3-1.6.5-.8,1-1Z"/>
              <path class="st2" d="M385.5,366.2c.3.2.3.3,0,.5v-.5Z"/>
              <path class="st1" d="M409.9,156.9c.3.2.3.3,0,.5v-.5Z"/>
              <path class="st0" d="M293.3,413.7c3.4-.3,9.5-6.8,12.3-7s3.6,2.2,5,2.5,4.9.1,5.2,0c.9-.6.4-8.1,5.7-6.8s5.2,6.1,4.8,9.6c-.7,7.3-7.9-.9-11.7,5.8s-.7,3.4-1.4,4.3c-1.4,1.7-6.4,2.6-8.3,3.4s-2.9,2.1-3,2.2c-.5.2-2.1,0-2.5-.2s-3-5.5-3.5-6.4c-1.9-3.7-1.6-3.3-2.5-7.4Z"/>
              <path class="st0" d="M303.3,432.7c.4-.2,1.8-.2,2.6-.6,2.3-1.1,5.6-3.2,8.2-3.4s4.4,2.1,7.5,2.3c5.2.2,3.3-4.2,6.4-4.8,8.1-1.5,8.7,10.9,5.7,12.7s-3.9.4-4.6.2-1.8-2.3-2-2.4c-.7-.3-4.6,1.1-5.2,1.8-1.2,1.4-.3,2.7-1,3.6s-9.1,2.7-10.8,3.1-1.3.9-1.4.9c-.5.1-1.7,0-2.2,0s-4-7.8-4.2-8.8-.3-4,.9-4.6Z"/>
              <path class="st0" d="M367.7,316.3c.9.3,2,.3,2.8.7,1.8.9,2.6,5.2,2.7,7,1,15.8-4.4,29.5-14.7,41-.9,1.1-6.3,6.7-6.8,6.9-1.5.6-4.1.5-5-1l-1-6.3c-1.9,3.9-6,6.3-8,10.2s-1.2,10.8-8.5,10.3-.3,0-.5,0c-2.4-2.6-.6-5.7-2.5-8.3-1.7.8-3.1,1.1-5,.5-2.9-.9-13.2-10.5-15.4-13.1-8.2-10.1-15-28.4-12.6-41.4s1.4-3,1.6-3.1c.5-.5,1.7-.5,1.9-.6.8,0,2.3,0,2.9.6,1.6,1.6.3,11.3.7,14.5,1.1,8.2,7.4,21.2,13.4,27.1s8.9,7.9,9.8,8.2c1.7.6-.1-2.4-.2-2.8-.2-.7-.5-3-.6-3.2s-.7,0-.9,0c-1.9-5.4-5-10.4-7-15.7-2-5.2-4-12.4-3-18,.4-1.9,1.7-1.6,2.5-2.3,6.3-.8,4.1,4.1,4.6,8.2,1.1,9.3,9.2,20.8,12.7,29.8.5,1.3-.3,2.8,1.7,1.7s1-1.3,1.5-1.7c7.4-6.9,12.7-17.5,13.9-27.8s-.7-10.1.2-11.6,2.8-1.6,3.6-1.6c7.1.2,3.8,14.6,3.3,19-1.1-.1-1.1,0-1,1-.1.1,0,2.9,0,3.5.1,2.6.9,5.1.5,7.7,0,.4.9.3,1,.2.6-.4,4.6-7.9,5.1-9.1,2.4-5.4,5-15.3,4.4-21.1s-3-7.3,2-9.7Z"/>
              <path class="st2" d="M415.5,329.1c-.5.9-1.8,2.7-2.2,3.6-2.2,4.1-4.1,8.4-6.6,12.3-2.7,1.8-4.8.4-4.4-2.8,5.4-11.9,14-23.1,16.3-36.2.4-2.6.3-13.5,1.6-14.4s3.7.4,4,2c.8,4.6-.4,12.8-1.5,17.4s-4.3,12.4-7.1,18.1Z"/>
              <path class="st2" d="M249.7,302.4c1.1,1.1.5,7.5.7,9.6.6,5.9,3.7,16,5.8,21.7,1.2,3.3,4.9,9.3,5.6,11.9s.4,4.1-1.3,4.6c-2.9.8-4.7-4-5.7-6.1-4.3-8.5-6.7-19.3-8.9-28.6.7-3.5-2.3-9.5-.6-12.5s3.3-1.7,4.4-.6Z"/>
              <path class="st2" d="M296.8,319.3c0,0-.2-.9.3-1,1.4-.4,3.7,0,4.4,1.5,1.9,9.2,3.3,19.4,7.6,27.9,1.9,3.7,9.2,14.5,12.7,16s.7-.2.9,0,.4,2.4.6,3.2,2,3.4.2,2.8-8.7-7.1-9.8-8.2c-5.9-5.9-12.3-18.9-13.4-27.1s.9-12.9-.7-14.5-2.1-.6-2.9-.6Z"/>
              <path class="st2" d="M314.3,327.8c0,0-.2-.9.3-1s1.9.3,2.6,0,1.1-2.6,3-2.8,2.3.7,2.7,1.3c.9,1.5-.3,8.3,0,10.9.6,6.6,5.7,14.5,8.4,20.6s1.9,6.4,3.6,9.1c-.5.4-.8,1.4-1.5,1.7-2.1,1.1-1.2-.5-1.7-1.7-3.5-8.9-11.6-20.5-12.7-29.8s1.8-9-4.6-8.2Z"/>
              <path class="st2" d="M367.7,316.3c-5,2.4-2.4,6-2,9.7.6,5.8-2,15.7-4.4,21.1s-4.5,8.8-5.1,9.1-1,.2-1-.2c.4-2.6-.3-5.2-.5-7.7,1.7.3,1.2-.1,1.7-1,1.8-3.4,4.4-12.5,5.1-16.4s-.4-8.3.5-12,1.7-4,4.5-3.5,1.2,1,1.2,1Z"/>
              <path class="st2" d="M355.7,343.7c-.2,1.9-.8.7-1,1-.1-1.1,0-1.1,1-1Z"/>
              <path class="st0" d="M318.3,229.8c-2.8,1.3-5.4-1-8.1-1.7-6.6-1.7-15.9-2.6-22.5-1.2s-9.1,4.6-8.8.6,10.6-12.1,14-13.4c8.1-3.3,20.9-.7,24.2,8.2s0,4.9,1.2,7.5ZM305.8,223.8c.8,0,1.7,0,2.6.1,1.6.3,6.4,2.9,5.8-.3s-4.4-4.4-5.4-5c-6.7-4.1-13.9-2.3-19.8,2.1l-3.1,3.1c2.9-1,5.5-1.1,8.5-1s8,.6,11.5,1Z"/>
              <path class="st2" d="M294.3,222.8c-3,0-5.6,0-8.5,1l3.1-3.1c5.9-4.4,13.1-6.2,19.8-2.1s5.3,4.2,5.4,5c.6,3.2-4.2.6-5.8.3s-1.8,0-2.6-.1c-1.9-4.3-8.3-3.3-11.5-1Z"/>
              <path class="st1" d="M305.8,223.8c-3.5-.4-8.1-.9-11.5-1,3.2-2.3,9.6-3.3,11.5,1Z"/>
            </g>
            <g>
              <path class="st0" d="M342.7,440.7c4.5-.4,18.5,3.6,23,5.5,2.2.9,5.1,3.1,7.5,4.2,4.1,1.9,6.3.4,6.9,6.5.5,5,.8,11.9,1,17s.6,13.6-.1,16.4-3.6,4.3-5.2,6c-2.6,3-5.1,7-8.7,8.6.2,2.8-.2,5.7,0,8.5.6,9.6,1.2,21.6,3.2,30.8,3.3,15.6,8.7,31-2.1,45.1-.7.9-4,3.4-3.5,4.2s1,.1,1.4.8c.8,1.1.8,13,.4,14.9s-.9,2-1.7,2.3c-1.2.4-7.8.7-9.3.5-4.5-.4-5.1-4.9-8.7-5.8-3.6-1-3.3,2-4.7,2.5-7.3,3-6.7-5.5-5.9-10.2-1.4,0-1.9,1.6-3.3,1.9s-3.9,0-5.6.1-4.2.3-5.7,0c-3.8-.7-1.6-6.6-2.4-9.1s-3.8-4.3-4.6-5.4c-5.8-8-8.2-15.1-7.3-25.2s10.5-19.5,11.5-29.9-.7-17.6,0-25.9l-13.1-12.4c-1.3-2-1.6-6.2-1.9-8.6-.7-6.7-.3-25.1,2.8-30.7s2.2-2.4,2.7-2.5c6-1.4,10.1-5,15.9-6.9s9.4-1.9,14.6-2.1,1.5-.6,2-1,.7,0,1,0ZM367.2,471.9v20.2c.8.1.9,0,1.5-.4s3.9-4,3.9-4.8c-1.5-8.9-.5-17.9-1.7-26.8-.6-1.1-9.9-5.5-11.7-6.2-10.4-4-21.7-5.1-32.5-1.5s-7.9,4.3-11.9,5.8c-1.9,7.3-2.6,16-2.1,23.6s1.6,8.1,7,10.7c1-4.5.2-9.2.5-13.7s1-8.1,1.5-9.3,2.7-2.8,2.8-2.9c1.2-.5,4.2-.4,4.9-1.5,1-1.8-.2-5.5,2.4-8.3s8.1-3.7,10.6-3.7,12.6,2.9,13.2,6.8-1.9,4.6-.8,6.2,7.4,1.5,9.3,2.7,2.8,2.6,3,3ZM345.7,491.6v-28.7c0-1-6.4-1.4-6.9,0,.5,3.4-.9,26.6,0,27.6s6,2,6.9,1.1ZM327.2,535.1c-1.9,15.2-16.6,23.6-8.2,40.4,6.2,12.3,21.3,16.4,34.2,12.8,7.3-2.1,11.9-10.2,12-17.5.2-11-3.2-18-5-28s-1.6-28.5-1.5-42.4c0-8,0-15.9,0-23.9-.5-1.1-4-2-4-.6v19c0,1.8-1.7,4.8-3.5,5.5-5.4,2.1-17.8.4-20.7-5.2s.1-3.1-1.8-3c0,11,0,22,0,33-.3,0-.9,0-1,0-.2.2,0,4.9,0,5.8s.5,1.1.5,1.2c0,.6,0,1.4,0,2-1.4-.1-.9,0-1,1Z"/>
              <path class="st0" d="M326.7,631.5c2.6,0,6.5-.7,8.3,1.5s.7,2.1,1.7,2.8,4.8,1.2,6,0c2.6-2.6-1.3-1.2-2.2-1.3-5.1-.2-6.5-9.4-2.5-12.4s3.7.7,6.5,1.3c6.3,1.4,6.2-4.6,8.5-5.3s9.8-.3,11.4-.1c4.3.5,2.5,4.8,2.7,8.3s3,8.7-2.8,9.2-6.4.2-9.5.5c-2.5-.5-2.5-5-5.5-5.5s-4.8.6-5.2,3.5c4-1.6,6.4,1.7,6,5.5-9.9-.2-19.9.2-29.8,0-.9,0-1.6-.5-1.7-.5l.6-6.9c.5-.8,6.1-.6,7.4-.6Z"/>
              <path class="st0" d="M327.2,606c1.5,0,5.6-.3,6.7.5s2.2,4.2,3.7,5c5.5,3,4.6-1.9,7.6-2.8,7.2-2.1,5.8,11.9,2,13.1s-3.7-1.9-5-2.5c-2.7-1.3-6.7,2.9-7.8,5.3-2.5-.5-5.4.5-7.6.5s-5.6-.3-6.4-1.3c-1.6-2-1.6-14.2,0-16.1,1.4,0,1.4-1.3,2.7-1.5s2.8,0,4.2-.1Z"/>
              <path class="st1" d="M328.7,525.1c0-11,0-22,0-33,1.9-.2,1.2,1.9,1.8,3,2.9,5.7,15.3,7.4,20.7,5.2s3.5-3.7,3.5-5.5v-19c0-1.4,3.5-.5,4,.6,0,8,0,15.9,0,23.9,0,14-.9,28.5,1.5,42.4s5.1,17,5,28-4.7,15.5-12,17.5c-12.8,3.6-28-.5-34.2-12.8-8.4-16.8,6.3-25.2,8.2-40.4,1.4.1.9,0,1-1s0-1.4,0-2c.9-1.9.5-4.8.5-7ZM331.8,502.2c-1.1.7-.4,13.3-.6,15.7s-.7,7.7-1,11-5.2,17.6,2,14c1.5-.8.7-2.7,1-4s.8-1.3.9-2.1c2.1-10.7,1.4-22,1.5-32.9,0-1.7-2.9-2.3-3.9-1.7ZM352.5,552.3c-16.5-9.1-38.6,4-29.2,22.5,7.3,14.3,32.9,14.1,37.7-2.1s-1.8-16.7-8.5-20.4Z"/>
              <path class="st1" d="M367.2,471.9c-.1-.4-2.3-2.6-3-3-1.9-1.1-8.7-1.8-9.3-2.7-1.1-1.6,1.1-4.2.8-6.2-.6-3.9-9.8-6.8-13.2-6.8s-8.9,1.9-10.6,3.7c-2.6,2.8-1.4,6.5-2.4,8.3s-3.6,1-4.9,1.5-2.8,2.7-2.8,2.9c-.5,1.3-1.4,7.7-1.5,9.3-.3,4.6.5,9.2-.5,13.7-5.4-2.6-6.7-4.7-7-10.7s.3-16.3,2.1-23.6c4-1.5,7.9-4.5,11.9-5.8,10.7-3.6,22.1-2.5,32.5,1.5s11.2,5.1,11.7,6.2c1.2,8.9.2,17.9,1.7,26.8,0,.9-3.2,4.3-3.9,4.8s-.7.5-1.5.4v-20.2Z"/>
              <path class="st1" d="M345.7,491.6c-1,1-6.6-.7-6.9-1.1-.9-1,.5-24.2,0-27.6.5-1.4,6.9-1,6.9,0v28.7Z"/>
              <path class="st2" d="M328.7,525.1c0,2.2.4,5.1-.5,7,0,0-.5-.6-.5-1.2s-.2-5.6,0-5.8.7,0,1,0Z"/>
              <path class="st2" d="M341.7,440.7c-.5.4.9.9-2,1-.3-1.5.7-.9,2-1Z"/>
              <path class="st2" d="M328.2,534.1c-.1.9.4,1.1-1,1,.1-.9-.4-1.1,1-1Z"/>
              <path class="st0" d="M352.5,552.3c6.7,3.7,10.7,13,8.5,20.4-4.8,16.2-30.4,16.4-37.7,2.1-9.4-18.5,12.7-31.5,29.2-22.5ZM344.5,562.3c1.1-.9,3-2.7.5-3.2s-1.3,1.1-2.1,1.5c-1.3.7-5.5.3-5.7.5-.1,2.5,5,2.3,6.6,2s.4-.6.6-.8ZM348.7,573.6c-1.2.8-3.1-2.1-4-2.7-2.8-1.8-7.4-2.1-9.7.7s-1.1,2.7.5,2.5,1.8-2.9,4.8-2.3c1.8.4,5,2.1,4,4.3.4.4,3.5-1.1,4.2-1.5s.3-1,.3-1c.2-.1,1,.1,1.7-.5s2.1-3.6,2.2-4.3c.6-2.8-.6-2.3-.9-3.1s-1.1-5.1-1.5-1.9.2,3.4,0,5-1.3,4.6-1.5,4.8Z"/>
              <path class="st2" d="M331.8,502.2c1-.6,3.9,0,3.9,1.7-.2,10.9.6,22.2-1.5,32.9-.2.8-.8,1.3-.9,2.1-.3,1.2.5,3.2-1,4-7.2,3.6-2.2-11.7-2-14,.3-3.3.8-7.8,1-11s-.5-15,.6-15.7Z"/>
              <path class="st1" d="M348.7,573.6c.2-.1,1.4-4.3,1.5-4.8.2-1.6-.2-3.4,0-5,.4-3.2,1.4,1.6,1.5,1.9.3.8,1.5.3.9,3.1s-1.8,3.9-2.2,4.3c-.7.6-1.5.4-1.7.5s.1.7-.3,1-3.8,1.9-4.2,1.5c1-2.2-2.2-3.9-4-4.3-3.1-.6-3.5,2.1-4.8,2.3s-1.3-1.5-.5-2.5c2.3-2.8,6.9-2.5,9.7-.7s2.9,3.5,4,2.7Z"/>
              <path class="st1" d="M344.5,562.3c-.2.2-.2.7-.6.8-1.7.4-6.8.6-6.6-2,.2-.2,4.4.3,5.7-.5s-.5-2,2.1-1.5.6,2.3-.5,3.2Z"/>
            </g>
          </g>
          <g>
            <path class="st2" d="M162.9,394.7c.6,4.6,3.2,9,4.4,13.4,2.9,11.4,3.7,23.3,4.6,34.8s1.6,8.7,1,13.2c4.7-.5,10.6.6,15.2,0s1.3-.8,2.1-.9c7.3-.9,17.6-1.3,23.9-5.1s3.9-7.3,3.4-11.7-2.6-5.4.5-7.9c4.2-3.4,6,3.1,7.3,5.2,3.4,5.7,7.3,13.3,14.1,14.9,3.5.8,12.3,0,14.4,2.1s.8,9.7,1.2,12.8c2.8,24.4,2.5,52.7,1,77.4-1.5,25.2-2.6,50.9-5.5,75.9-.3,2.2.6,13.5-.5,14.2-4.2-.7-8.4-1.6-12.6-2.6s-6-1.6-8.9-2.4c.3-2.2.2-5.1.5-7.2,2.3-14.4,5-28.8,7-43.4,4.6-33.6,10.2-67.3,6.9-101.5-.3-3.2-2-13.8-4.2-15.8s-4.3-1.2-6.2-.7c-3.8,3.6-7.3,7.5-11.2,11-14.4,13.1-33.5,27.6-49.8,38.4-1.6,1-14.1,9.2-14.9,8.3,1.3-5.5,3.4-10.9,4.8-16.4,7.9-30.8,9.6-65.5-1.2-95.9-.8-2.2-3.9-7.8-4.2-9.3s0-.7.7-.8c1.8-.3,4.3,0,6.3,0Z"/>
            <path class="st1" d="M97.9,428.2c7.8,6.6,10.4,10.6,14.9,19.9s2.2,9.4,7.3,9.1,4.8-2.7,4.3-5.7-5.7-12.6-7.3-15.2c-4.5-7.6-11-13.7-18.2-18.8.3-.7,3.5-1.8,4.4-2.1,8.2-2.5,25.8-2.4,34.1.1s10.3,10,10.5,16.4c.4,11.6-1.7,30.3-16,31.8-1,0-1.1-.4-1,1-3.4.3-11.5.4-14.8,0s-1.7-.4-2.2-1,0-.7-.3-1c-2.5-2.5-5.2-2.4-7.7-5.3-6.2-7.2-10.4-19.8-8.1-29.2Z"/>
            <path class="st2" d="M113.9,463.7c-9.5,0-19.5-1.7-25.7-9.5-4.1-5.1-4.2-9.2-3.7-15.7s2.8-14.1,4.7-15.8,4.4,2.1,6.2,3.5,1.8,1.3,2.6,2c-2.3,9.4,1.9,21.9,8.1,29.2,2.5,2.9,5.2,2.8,7.7,5.3s.2.9.3,1Z"/>
            <path class="st2" d="M149.4,506.6l-2.9-10.9c-.6-7.6-3.7-16.7-2.6-24.3.4-3.1,2.7-3.9,4.4-6.1,5.4-6.9,7.1-12.3,8.1-20.9s.2-2.7.9-2.8c-.1,7.4.8,14.8.5,22.3s-.8,7.5-1.4,11.1c-1.7,10.7-4.3,21.2-7.1,31.6Z"/>
            <path class="st2" d="M146.4,396.2c.5.4,1.2,3.4,1.5,4.1,1.2,2.6,2.7,5.4,3.7,8.4s1.9,5.3,1.8,8l-9-7.9c-1-2.2,0-9.5.9-11.9s.2-1.4,1-.7Z"/>
            <path class="st2" d="M131.9,463.7c.1,1.4,0,.9-1,1-.1-1.4,0-.9,1-1Z"/>
          </g>
        </g>
        <g>
          <g>
            <path class="st2" d="M435.7,461.7c.1-.3,0-1.2.3-1.9.5-1.2,4.7-7.6,5.7-8.3,1.6-1.2,3.3-.7,5.2-.7,19.4,6.1,38.8,12.2,58.1,18.3,4.2,1.3,10.4,2.4,14.2,4.2.6.3.6,1.1,1.2,1.4s6.1,1.3,7.4,1.6c2.6.5,5.6.5,8.2,1,1.4,7.7,3.4,15.4,7,22.5-12.2-1-24.1-4.8-35.6-9-19.5-7.2-41.6-15.6-59.8-25.7s-6.7-6.3-12.1-3.2Z"/>
            <path class="st1" d="M558.1,430.7c2.3-4.6,13-7,18-8-1.3,3.9-3.6,7.5-4.7,11.6s-1.8,17.5.3,23,2.9,4.7,4.2,6.3,2.9,2.6,3.1,3.4c.5,1.7-1.2,7.3-.4,9.6-4.3,0-8.8-.3-13-1.5-.5-4-3.6-6.2-5.7-9-7.1-9.6-7.1-24.9-1.8-35.4Z"/>
            <path class="st2" d="M550.3,423.9c-1.4,1.6-3.4,3.1-4.6,4.6s-2.4,4.5-2.6,4.7-1.1.2-1-.2c-.6-9.1.2-17.6,2.5-26.5s2.8-9.2,5.2-12.8c1.7,4.2,1.3,8.4,1.8,12.7s2.3,12.7.2,16.2-1.1.8-1.5,1.2Z"/>
          </g>
          <g>
            <path class="st0" d="M536.1,477.1c-3.1-17.3-4.6-39.6-3.5-57.2s4-18.4,7-27.2c-1.9.3-3.8.6-5.7,1-6.1,1.5-13.4,4.7-19.6,5.4-7.6.9-16.3.6-23.9,1-5.7.3-12,2.9-17.2.2s-6.6-5-9.4-7.1c-6.4-4.7-11.5-8.5-17.1-14.1-.7-.7-3-1.9-3.4-2.7-1.7-3.3-.3-6.7,3.6-6.9,3-.1,10.5,7.6,13.3,9.7,5.8,4.4,11.9,8.5,17.7,12.8,2.3-.2,4.7.2,7,0,6.2-.6,11.8-1,18-1.5,12.8-1,23.5-5.4,35.7-8.3s11.9-3.1,14.6-2.6c4.1.8,3.3,4.9,4,8s1.8,4.3,2.2,6.3c1.7,7.4,2,15,2.6,22.6.5.6,9.4-2.5,10.9-2.9,2.6-.6,4.3,1.1,4.7-2.8.9-9.6,0-22.6,0-32.5,0-5.9-.5-12-.5-17.9-.2-28.8-.2-57.8.4-86.6,4.3-6.5,9.9-1.8,9.6,4.6.1,41.8-.4,83.7.4,125.4s-1.5,6,.6,7.5,5.3,1.5,7.1,2.3c5.7,2.6,17,19.2,18.6,25.4,2.9,10.9.5,25.8-5.8,35.1-4.4,6.4-11.5,10.4-18.9,11.9-.3,10.2-.7,20.5-1,30.7s-.6,16-1,24c-.2,4.4,1.1,14.8-1.5,17.9s-8,.9-8.5-3.4c-.8-7.1.8-16.7,1-24,.3-10.3.2-20.6.5-31,0-2.2,1.4-13,0-14l-14.5-1.2c0,4.7-.6,9.5-1.7,14s-2.6,8.6-3.5,9.5c-1.9,1.9-4.5,2.1-7,2s-8.7-1-11.9-1.5c-23.9-3.8-52.5-15.2-75.1-24.8-8.1-3.5-16-7.7-23.6-12.1-.7.5-1.4,6.5-1.5,7.7-1.5,21.3.6,41.4,3.5,62.4s9.4,55.7,17.9,83c-.9,5.5-6.3,7.6-9.4,2.5-5.1-18-10-35.3-13.1-53.9-5.1-29.9-10.3-60.4-8.4-91s2.4-14.1,5.5-21.2c5.4-3.2,7.9.9,12.1,3.2,18.2,10.1,40.2,18.5,59.8,25.7,11.5,4.2,23.4,8,35.6,9-3.5-7-5.6-14.7-7-22.5ZM550.3,423.9c.4-.5,1.2-.6,1.5-1.2,2.1-3.5.2-12.2-.2-16.2s0-8.5-1.8-12.7c-2.4,3.6-4,8.3-5.2,12.8-2.3,8.8-3.1,17.3-2.5,26.5,0,.4.9.3,1,.2.2-.2,1.9-3.8,2.6-4.7,1.1-1.5,3.2-3.1,4.6-4.6ZM592.5,424.7c0,0,0-.9-.5-1.2-2.3-1.7-4.5-2.2-6.3.4-6.1,9-10,26.5-1.7,34.9.6.6,3.4,1.9,4,3.2s.2,3.3.5,4.9,1,1.4,1,1.5v7.2c1.3-.3,3.5-.6,4.6-1s.3-1,.4-1c13-8.1,13.2-27.7,5.7-39.9-2.3-3.7-4.5-6.8-7.7-9ZM565.6,475.1c4.1,1.2,8.7,1.5,13,1.5-.7-2.3.9-8,.4-9.6s-2.4-2.5-3.1-3.4c-1.3-1.6-3.5-4.5-4.2-6.3-2.1-5.5-1.8-17.4-.3-23s3.4-7.6,4.7-11.6c-4.9,1-15.7,3.3-18,8-1-.3-2.4,1.1-3,1.7-6.8,6.9-9,19.8-6.4,29s5.2,7.4,6.7,8.8c2.2,2,7.3,4.2,10.2,5ZM547.3,476c-.5-.6-.8-1.3-1.5-1.8-.4,0-.3.4-.3.8.3,4.3,3.9,16.1,6.1,19.9s1.7,3.3,2.4,0,1-8.9,2-13.2c-3.4-1.2-6.3-3.2-8.7-5.8Z"/>
            <path class="st2" d="M585.3,255.1c-2.5,3.3-8.9,3.6-11.2-.2s-1.1-7,1.9-9.3c6.6-5.2,14.5,2.7,9.2,9.5Z"/>
            <g>
              <path class="st0" d="M559.6,277.8c2-.5,2.8-2.7,5-3.3,4.7-1.3,8.4,3.4,5.5,7.4l-24.5,20.1c-2,1.3-4.9.8-6.5-.9-2.2-2.6-1.2-4.5-.4-7.4,3.2-10.3,8.8-21.1,12.6-31.4s2.1-5.5,1.7-6.7-10.5-6.7-11.8-8.8c-7.1-5.4-15.1-9.7-22.2-15s-2.8-8.9,2.3-9.5,18,.2,25,.5,9.1.9,13.5,1,2.7,0,4-.5l12.2-39.4c3-4.2,7.7-3.5,9.5,1.2,3.7,10,5.7,21.2,9,31.5s1.9,6.4,2.6,6.8c6.4.6,12.9,0,19.3.2s14.5.4,21,1,6.2,2.7,5.2,7.1-2.3,2.4-2.7,2.7c-7.8,6.7-19.7,13-28.3,19.5s-4.3,2.3-2.9,6.3c2.7,7.7,6.8,15.2,9.6,22.9s8.4,19.7-3.6,17.1c-6.2-5.5-15-9.7-20.6-15.6l-1-2.5c.4-3.5,1.5-5.5,5.5-5.5l6.6,4.5c.2.9,2.1,1.7,1.9.2l-10.3-24.7c-.6-2.5,1-4.7,2.9-6.1,6.5-5.1,14.8-10.4,21.6-15.2s1.7.5,1.3-1.7l-28.7-.5c-2.1-.2-3.5-1.1-5.2-2-1.8-7.3-4-14.8-6-22s-1.6-3.5-1.5-5.5c-2.2-.3-1.2.3-1.6,1.6-1.9,5.2-3.6,10.6-5.1,15.9s-2,10.4-2.9,10.9-2.2-.6-1.9,1.1c-.7,0-1.6.5-3,.5.5-1.6-3.4-1-5-1s-3,0-4.5,0c-.5-.8-1.9-.5-2.7-.5-4.8,0-10.3-.3-15,0s-1.4-.4-1.2.7c6.8,5.3,14.3,9.7,21.1,14.8s5.7,3.7,4.7,8.5-1.9,3.6-2.4,5.1c-2.4,6.7-5,13.3-7.5,20l.7.7c1-2.1,4.1-2.2,4.8-4.5Z"/>
              <path class="st2" d="M588.5,231.3c1.7.9,3.2,1.8,5.2,2l28.7.5c.4,2.2-.6,1.1-1.3,1.7-6.8,4.8-15,10.1-21.6,15.2s-3.5,3.6-2.9,6.1l10.3,24.7c.2,1.5-1.7.7-1.9-.2l-6.6-4.5c.6,0,2.3,1.2,1.9-.2-2.5-6.5-3.7-13.5-7.7-19.3-.3-1-.4-2.2-.1-3.2s7.5-7.7,8.8-8.8l9.6-7.5c-2.5.2-4.8-.8-7.3-1-3.6-.4-13.2.7-15-3s0-1.8-.3-2.5Z"/>
              <path class="st2" d="M557.1,232.8c-3,0-6.6.3-9.8.5s-1.4-.3-1.2.5c2.1,0,3.1,2,4.3,2.9,3.9,2.9,8,5.6,11.8,8.6s7,4.4,6.2,8c-1.7,7.4-7.6,16.6-8.8,24.5-.6,2.3-3.8,2.4-4.8,4.5l-.7-.7c2.5-6.7,5-13.3,7.5-20,.5-1.5,2.1-3.6,2.4-5.1,1-4.9-1.4-6-4.7-8.5-6.8-5.2-14.4-9.5-21.1-14.8-.2-1.1.5-.7,1.2-.7,4.7-.3,10.2,0,15,0s2.2-.3,2.7.5Z"/>
              <path class="st2" d="M569.6,233.3c-.3-1.7,1.1-.6,1.9-1.1s2.3-9,2.9-10.9c1.5-5.3,3.3-10.7,5.1-15.9s-.5-1.9,1.6-1.6c0,2,1,3.6,1.5,5.5-2.1-.2-1.2,0-1.5,1.2-1.3,4.9-2.5,9.7-3.9,14.6s-.4,7.8-4.5,8.5-2.1-.5-3.1-.4Z"/>
              <path class="st2" d="M561.6,232.8c1.6,0,5.5-.6,5,1-1.6,0-5.5.6-5-1Z"/>
              <path class="st2" d="M594,284.8c-.1-.2-1.3.4-1.3-1.8s.3-.6.3-.7l1,2.5Z"/>
            </g>
            <path class="st1" d="M592.5,424.7c3.2,2.2,5.4,5.4,7.7,9,7.5,12.2,7.3,31.8-5.7,39.9-2.7.5-.9-1.4-1-3.2s-.5-1.3-.5-1.5v-10c0-1.4-6-7.7-7.1-10.4-2.4-5.8-1.1-10.4,1.2-15.9s3-6.7,5.4-7.9Z"/>
            <path class="st2" d="M592.5,424.7c-2.3,1.2-4.3,5.5-5.4,7.9-2.4,5.5-3.6,10.1-1.2,15.9s7.1,9,7.1,10.4v10c0,.2.5.8.5,1.5,0,1.9-1.8,3.7,1,3.2,0,0,.2.8-.4,1-1.1.4-3.4.7-4.6,1v-7.2c0,0-.8-.6-1-1.5-.3-1.6.4-3.1-.5-4.9s-3.4-2.6-4-3.2c-8.3-8.5-4.4-25.9,1.7-34.9,1.8-2.6,4-2,6.3-.4s.5,1.2.5,1.2Z"/>
            <path class="st2" d="M558.1,430.7c-5.3,10.6-5.3,25.8,1.8,35.4s5.2,5,5.7,9c-2.9-.8-8.1-3-10.2-5s-6.2-7-6.7-8.8c-2.5-9.2-.3-22.1,6.4-29s2-2,3-1.7Z"/>
            <path class="st2" d="M547.3,476c2.5,2.6,5.4,4.6,8.7,5.8-1,4.3-1,8.9-2,13.2s-1.4,1.6-2.4,0c-2.2-3.8-5.8-15.6-6.1-19.9s-.1-.8.3-.8c.6.5.9,1.2,1.5,1.8Z"/>
          </g>
        </g>
      </g>
      <path class="st1" d="M88.9,262c21.6-1.2,40.9,13.3,45.8,34.3-2,.2-1.2,4.5-1.5,6.1-4.3,22.3-28.2,38.2-50.3,29.6-28.5-11.1-27-50.8-1.7-65.1,2.4-1.3,6.6-2.1,7.6-4.9ZM119.8,288.1c0-6-4.8-10.8-10.8-10.8s-10.8,4.8-10.8,10.8,4.8,10.8,10.8,10.8,10.8-4.8,10.8-10.8Z"/>
      <path class="st2" d="M88.9,262c-1.1,2.8-5.3,3.6-7.6,4.9-25.3,14.3-26.8,54,1.7,65.1,22.1,8.6,46-7.3,50.3-29.6s-.5-5.8,1.5-6.1c4.3,18.2-3.3,37.2-19,47.4-15.7,10.2-36.1,9.6-51.1-1.6-15-11.2-21.4-30.6-15.9-48.6,5.4-17.9,21.5-30.5,40.2-31.6Z"/>
      <path class="st2" d="M119.8,288.1c0,6-4.8,10.8-10.8,10.8s-10.8-4.8-10.8-10.8,4.8-10.8,10.8-10.8,10.8,4.8,10.8,10.8ZM111.3,290.7c2.7-2.4-1.8-7.8-4.7-5.2s1.6,8,4.7,5.2Z"/>
      <path class="st1" d="M111.3,290.7c-3.2,2.7-7.5-2.9-4.7-5.2s7.5,2.9,4.7,5.2Z"/>
    </g>
  </g>
</svg>