<?xml version="1.0" encoding="UTF-8"?>
<svg id="Layer_1" xmlns="http://www.w3.org/2000/svg" version="1.1" viewBox="0 0 256.8 212.1">
  <!-- Generator: Adobe Illustrator 29.4.0, SVG Export Plug-In . SVG Version: 2.1.0 Build 152)  -->
  <defs>
    <style>
      .st0 {
        fill: #ee5828;
      }
    </style>
  </defs>
  <g id="NNrEtd.tif">
    <g>
      <path class="st0" d="M106.1,9.5c-.4.7.2,2.1-.6,2.7s-1.5-.3-2.2-.2c-3.6.2-2.7,7,1.9,6.9s1.6-1.8,2.2-2.3c2.7-2,5,4.6,2.7,5.2s-1.6-.5-2.4-.5c-2.1.1-4,5.9.6,6.9s2.6-2.4,4.3-2.3,3.7,5.4,1.5,5.9-2.3-1.7-3.6-.3-1.5,3.1-1.5,3.3c-.5,2.2,3.8,4.3,5.4,3.4s1-2.1,1.7-2.2c2.3-.2,4.4,6.8.6,5.8s-1.6-1.6-3.1.2c-2.4,2.8-1.1,6.1,2.5,6.5s1.2-2.7,3.4-1.9,2.6,6.5.2,5.8-1.3-1.5-2.9-.7c-2.5,1.2-2.8,5.6.5,7s2.8-2.3,4.7-1.7,2.6,5.3.5,5.9-4.5-3.3-5.6,1.9,1.7,5.4,4.1,4.6.3-1.7,2-1.4,1.5,2.4,2.1,2.5c1.9.5,6.1-.1,8.4,1,1.1-2.6-.5-1.7-1.1-2.1s-.4-1.6-1.5-2.3c-1.8-1.2-2.1.6-3.4.8-2.4.2-2.2-5.2,0-5.8s1.5,2.1,3.4,1.9,1.4-1.2,2.3-1.7,1.9,0,2-.5c.5-2.5-.7-1.9-1.2-2.8s-.5-1.6-1-2c-1.5-1.3-4,.6-4.7,0s-.4-4.8,1.3-5.4,1.6,1.8,3.4,1.9c.7-.4,4.1-1.6,4.3-1.8,1.5-2-.5-2.2-.8-2.7-.8-1.3-.5-3.1-2.5-3s-1.4.7-2,.8c-2.4.2-1.5-5.7,1-5.8,1.3,0,1.4,2.5,3,2.5s4.2-1.6,4.3-1.8c1.3-2.2-.3-2.1-.5-2.5-.6-1.2-.6-3-2.3-3.2s-3.9,2-3.6-1.7,1.2-3.2,1.7-3.3c2.4-.5,2.2,2.5,3.9,2.5s4.1-1.7,4.3-1.8c1.3-2-.3-2.1-.5-2.5-.3-.8-.1-2.3-1-2.9s-2.8.5-4,.3c-.1-1.5,0-4.5,1.5-5.2,2.5-1.2,2.1,1,3,2,1.5,1.7,6.7-.9,4.8-5.4-1.3-3.2-4.8,1.2-4.8-2.7s2.2-4.7,4-3.5.6,5.1,5.5,1c-1.4-1.6-6.9-2.8-7.4-4.6s2.4-8.7,5.4-7.9,9,5.7,13.2,6.8l91.6.2c1.1.7,1.7,1.6,1.5,3l-.3,200c-.5,1.5-2,2-3.5,2-47.1,0-94.3,0-141.3,0-36.7,0-73.5.2-110.1-.2l-1.4-1.1L0,8.6l1.1-1.4,88.1-.2C92.5,6.4,100.7,0,103.2,0s5.5,6.5,4.5,8.5-1.5.8-1.6,1.1ZM92.2,13.4H6.6v192.2h106.6c1-1.4,3.1-6.2,2.7-7.7s-.9-.1-1-1.1-.2-6,0-6.9,1-.2,1-1.1c0-2.1-1.6-5.4-1.1-9s1.2-.3,1.1-2.5-1-1-1.1-1.9-.2-4.8,0-6.1,1.5-.5,1.1-3-.9-.7-1-1.1c-.2-1,.3-2.2-.3-3.2s-3.7-2.7-5.2-5.8c-6-12.1,2.5-19.5,3.4-30.9s.6-16.5,0-22-4.8-4.3-5.4-6.6-.4-13.2-.1-15.4c.5-4.2,3.4-5.4,3.9-7.1s-.6-5-.4-5.8c.3-1.2,2.4,0,2-2.1s-1.9-.9-2.4-2.1-.9-5.2-.9-5.4c.1-.7,1.3-.8,1.2-2.4s-1.6-1-2.1-2-1.4-5-1.4-5.7c0-1.1,1.3-.2,1-1.8s-1.5-1.1-1.9-1.7-1.9-5.6-2-6c0-1,1.8-.4.7-2.6s-1.4-.5-1.9-1.1-2.2-5-2.2-5.3c0-.8,1.6-1.8.5-3.4s-1.6,0-2.3-.8-2.2-5.2-2.1-5.6.8-.8.8-1.5c0-2-1.9-1-2.9-1.6s-1.5-3.9-2.7-4.3ZM138.2,205.6h111.3c0,0,.7-.7.7-.7V14.2c0,0-.7-.7-.7-.7h-88.9c-.2,0-.6,1.2-3.7,1.2s0,1.5,0,1.6c.2.8-2.3,5.9-2.6,6.1-.6.4-1.4-.2-2.3.9-1.5,1.8.4,1.7.5,2,0,.5-2.1,5.4-2.5,5.9s-1.7.3-2,1.1.4,2.2.1,3.6c-.6,2.8-2.3,3.9-3.2,5.5s-.8,5.9-1.6,8.2c-1.7,4.6-2.8,10.2-3.3,15.1s-.3,3-.6,3.9c-.4,1.5-2.4,3-1,4.5s3.7,1.4,5.4,4.1,2.9,15.2,1.7,19.1-5.2,3-5.7,7.8c-.5,5.3-.4,15.1,0,20.5,1,12,10.5,22.5,2.2,34.2-1.2,1.7-5.4,4.3-5.6,4.6-.6,1,.3,6,0,7.6s-1.4,0-1.6.5c-.5,2.6.8,2.1,1.3,2.7s.5,6.3.3,7.2-1.4,0-1.6.5c-.5,2.6.8,2.1,1.3,2.7s.5,6.3.3,7.2-1.5,0-1.6.5c-.7,3.7,1.5,2.5,1.6,3s.1,6.3,0,6.9-.7.4-1,.3v.5c2.1-.6,2,2.2,2.7,2.5ZM130.4,73.3h-8v37h8v-37ZM119.4,75.3c-4.3,1-8,2.9-8.5,7.7s-.3,11.2.5,12.5,1.7,1.6,2,1.2c.2-1.8-.5-4.3.5-5.8,1.5-2.3,5.5-1.4,5.5-1.7v-14ZM133.4,75.3v14c0,.3,3.8-.5,5.2,1s1.3,4.7,1.3,6.5c.5-.2,1.5-1,1.7-1.5.5-1.1.5-10.5.3-12.2-.6-5.3-3.9-6.5-8.5-7.7ZM119.4,92.8h-3v33.7c0,7.6-6.6,15-5.4,23.4,1.9,14.6,24.6,15.9,29.5,4.6s-4.1-18.8-4.1-29v-32.7h-3v16.2c0,.9-2.4,3.9-3.3,4.1s-6.7.3-7.6-.2-3-3.3-3-4.5v-15.7ZM122.9,165.2c-.1-.1-2.8.4-2.9.6-.2.2-.2,2.7,0,2.9s1,0,1.4.4c.9.8.9,2,2.3,2.2,2,.3,2.5-1.6,3.4-1.5,1.8.3,1.8,5.2,0,5.4s-1.8-2.7-4.4-.9-.8,1.1-1.4,1.7-2.3,0-1.5,3,1.1.3,1.5.6c2,1.7,1.2,3.5,4.8,1.2s3.7,5,.5,5.1-1.2-2.2-3.2-1.3-3.1,2.6-3.3,2.8c-1.4,2.2,2.7,5.3,4.5,5s2.1-1.7,3.3-.8.7,3.7.2,4.3c-1.3,1.8-2.5-.7-3.2-.8-1.6-.4-5.4,2.8-5.1,4.5s3.4,3.6,3.9,3.7c1.8.5,2-1.5,2.9-1.5,2,0,1.3,2.2,3.8,1.5-.8-1.5-2.1-3.5-4.1-2.9s-1.2,1.5-2,1.4c-1.6-.3-1.9-4.4-.3-5.2s1.4.9,2.4,1.2c3.9,1.2,5.7-5.9,2.1-7.7s-3,1.1-3.8,1.2c-2.1.4-2.7-6.4.5-5.4s.7,2,2.9,1.3,3-2.9,3-4c0-1.8-2.8-4.3-4.7-3.7s-3.1,3.3-3.4-.8c-.5-6.1,3.4-1.7,4.6-2s3.2-2.2,3.3-2.4c1.1-1.8-1.6-5.3-3.3-5.7s-4.9,4.9-4.5-3.2Z"/>
      <path class="st0" d="M117.6,140.4c7-7.5,23-2.8,20.7,8.5s-19.5,10.7-22.6.9-.4-6.9,1.9-9.3ZM131.4,141.7c.3-.4-2.1-1.9-2.5-1.5-.9,5.1-1.8,2.1-3.4,1.6-2.6-.8-2.4,1-3.3,1.8s-2.8.3-1.9,3.3,1.1.3,1.5.6c.8.7,1.1,2,2.4,2.1s1.5-1,2.5-1.3c2.7-1,2.3,3.1,1.6,4.9,2.1.2,4.1-1.8,2.9-3.9s-3.4-2.6-3.6-2.6c-1.3,0-2.2,1.8-3.8,1.5-.6-1.3-1-5.2.8-5.5s1.5,2.1,3.8,1.4,1.3-2.5,2.8-2.4Z"/>
    </g>
  </g>
</svg>